<?xml version="1.0" encoding="utf-8" standalone="no"?>
<!DOCTYPE svg PUBLIC "-//W3C//DTD SVG 1.1//EN"
  "http://www.w3.org/Graphics/SVG/1.1/DTD/svg11.dtd">
<!-- Created with matplotlib (http://matplotlib.org/) -->
<svg height="345.6pt" version="1.1" viewBox="0 0 460.8 345.6" width="460.8pt" xmlns="http://www.w3.org/2000/svg" xmlns:xlink="http://www.w3.org/1999/xlink">
 <defs>
  <style type="text/css">
*{stroke-linecap:butt;stroke-linejoin:round;}
  </style>
 </defs>
 <g id="figure_1">
  <g id="patch_1">
   <path d="M 0 345.6 
L 460.8 345.6 
L 460.8 0 
L 0 0 
z
" style="fill:#ffffff;"/>
  </g>
  <g id="axes_1">
   <g id="patch_2">
    <path d="M 57.6 307.584 
L 414.72 307.584 
L 414.72 41.472 
L 57.6 41.472 
z
" style="fill:#ffffff;"/>
   </g>
   <g id="matplotlib.axis_1">
    <g id="xtick_1">
     <g id="line2d_1">
      <defs>
       <path d="M 0 0 
L 0 3.5 
" id="m987e3be3c0" style="stroke:#000000;stroke-width:0.8;"/>
      </defs>
      <g>
       <use style="stroke:#000000;stroke-width:0.8;" x="73.832727" xlink:href="#m987e3be3c0" y="307.584"/>
      </g>
     </g>
     <g id="text_1">
      <!-- 0 -->
      <defs>
       <path d="M 31.78125 66.40625 
Q 24.171875 66.40625 20.328125 58.90625 
Q 16.5 51.421875 16.5 36.375 
Q 16.5 21.390625 20.328125 13.890625 
Q 24.171875 6.390625 31.78125 6.390625 
Q 39.453125 6.390625 43.28125 13.890625 
Q 47.125 21.390625 47.125 36.375 
Q 47.125 51.421875 43.28125 58.90625 
Q 39.453125 66.40625 31.78125 66.40625 
z
M 31.78125 74.21875 
Q 44.046875 74.21875 50.515625 64.515625 
Q 56.984375 54.828125 56.984375 36.375 
Q 56.984375 17.96875 50.515625 8.265625 
Q 44.046875 -1.421875 31.78125 -1.421875 
Q 19.53125 -1.421875 13.0625 8.265625 
Q 6.59375 17.96875 6.59375 36.375 
Q 6.59375 54.828125 13.0625 64.515625 
Q 19.53125 74.21875 31.78125 74.21875 
z
" id="DejaVuSans-30"/>
      </defs>
      <g transform="translate(70.651477 322.182437)scale(0.1 -0.1)">
       <use xlink:href="#DejaVuSans-30"/>
      </g>
     </g>
    </g>
    <g id="xtick_2">
     <g id="line2d_2">
      <g>
       <use style="stroke:#000000;stroke-width:0.8;" x="125.529311" xlink:href="#m987e3be3c0" y="307.584"/>
      </g>
     </g>
     <g id="text_2">
      <!-- 50 -->
      <defs>
       <path d="M 10.796875 72.90625 
L 49.515625 72.90625 
L 49.515625 64.59375 
L 19.828125 64.59375 
L 19.828125 46.734375 
Q 21.96875 47.46875 24.109375 47.828125 
Q 26.265625 48.1875 28.421875 48.1875 
Q 40.625 48.1875 47.75 41.5 
Q 54.890625 34.8125 54.890625 23.390625 
Q 54.890625 11.625 47.5625 5.09375 
Q 40.234375 -1.421875 26.90625 -1.421875 
Q 22.3125 -1.421875 17.546875 -0.640625 
Q 12.796875 0.140625 7.71875 1.703125 
L 7.71875 11.625 
Q 12.109375 9.234375 16.796875 8.0625 
Q 21.484375 6.890625 26.703125 6.890625 
Q 35.15625 6.890625 40.078125 11.328125 
Q 45.015625 15.765625 45.015625 23.390625 
Q 45.015625 31 40.078125 35.4375 
Q 35.15625 39.890625 26.703125 39.890625 
Q 22.75 39.890625 18.8125 39.015625 
Q 14.890625 38.140625 10.796875 36.28125 
z
" id="DejaVuSans-35"/>
      </defs>
      <g transform="translate(119.166811 322.182437)scale(0.1 -0.1)">
       <use xlink:href="#DejaVuSans-35"/>
       <use x="63.623047" xlink:href="#DejaVuSans-30"/>
      </g>
     </g>
    </g>
    <g id="xtick_3">
     <g id="line2d_3">
      <g>
       <use style="stroke:#000000;stroke-width:0.8;" x="177.225895" xlink:href="#m987e3be3c0" y="307.584"/>
      </g>
     </g>
     <g id="text_3">
      <!-- 100 -->
      <defs>
       <path d="M 12.40625 8.296875 
L 28.515625 8.296875 
L 28.515625 63.921875 
L 10.984375 60.40625 
L 10.984375 69.390625 
L 28.421875 72.90625 
L 38.28125 72.90625 
L 38.28125 8.296875 
L 54.390625 8.296875 
L 54.390625 0 
L 12.40625 0 
z
" id="DejaVuSans-31"/>
      </defs>
      <g transform="translate(167.682145 322.182437)scale(0.1 -0.1)">
       <use xlink:href="#DejaVuSans-31"/>
       <use x="63.623047" xlink:href="#DejaVuSans-30"/>
       <use x="127.246094" xlink:href="#DejaVuSans-30"/>
      </g>
     </g>
    </g>
    <g id="xtick_4">
     <g id="line2d_4">
      <g>
       <use style="stroke:#000000;stroke-width:0.8;" x="228.922478" xlink:href="#m987e3be3c0" y="307.584"/>
      </g>
     </g>
     <g id="text_4">
      <!-- 150 -->
      <g transform="translate(219.378728 322.182437)scale(0.1 -0.1)">
       <use xlink:href="#DejaVuSans-31"/>
       <use x="63.623047" xlink:href="#DejaVuSans-35"/>
       <use x="127.246094" xlink:href="#DejaVuSans-30"/>
      </g>
     </g>
    </g>
    <g id="xtick_5">
     <g id="line2d_5">
      <g>
       <use style="stroke:#000000;stroke-width:0.8;" x="280.619062" xlink:href="#m987e3be3c0" y="307.584"/>
      </g>
     </g>
     <g id="text_5">
      <!-- 200 -->
      <defs>
       <path d="M 19.1875 8.296875 
L 53.609375 8.296875 
L 53.609375 0 
L 7.328125 0 
L 7.328125 8.296875 
Q 12.9375 14.109375 22.625 23.890625 
Q 32.328125 33.6875 34.8125 36.53125 
Q 39.546875 41.84375 41.421875 45.53125 
Q 43.3125 49.21875 43.3125 52.78125 
Q 43.3125 58.59375 39.234375 62.25 
Q 35.15625 65.921875 28.609375 65.921875 
Q 23.96875 65.921875 18.8125 64.3125 
Q 13.671875 62.703125 7.8125 59.421875 
L 7.8125 69.390625 
Q 13.765625 71.78125 18.9375 73 
Q 24.125 74.21875 28.421875 74.21875 
Q 39.75 74.21875 46.484375 68.546875 
Q 53.21875 62.890625 53.21875 53.421875 
Q 53.21875 48.921875 51.53125 44.890625 
Q 49.859375 40.875 45.40625 35.40625 
Q 44.1875 33.984375 37.640625 27.21875 
Q 31.109375 20.453125 19.1875 8.296875 
z
" id="DejaVuSans-32"/>
      </defs>
      <g transform="translate(271.075312 322.182437)scale(0.1 -0.1)">
       <use xlink:href="#DejaVuSans-32"/>
       <use x="63.623047" xlink:href="#DejaVuSans-30"/>
       <use x="127.246094" xlink:href="#DejaVuSans-30"/>
      </g>
     </g>
    </g>
    <g id="xtick_6">
     <g id="line2d_6">
      <g>
       <use style="stroke:#000000;stroke-width:0.8;" x="332.315646" xlink:href="#m987e3be3c0" y="307.584"/>
      </g>
     </g>
     <g id="text_6">
      <!-- 250 -->
      <g transform="translate(322.771896 322.182437)scale(0.1 -0.1)">
       <use xlink:href="#DejaVuSans-32"/>
       <use x="63.623047" xlink:href="#DejaVuSans-35"/>
       <use x="127.246094" xlink:href="#DejaVuSans-30"/>
      </g>
     </g>
    </g>
    <g id="xtick_7">
     <g id="line2d_7">
      <g>
       <use style="stroke:#000000;stroke-width:0.8;" x="384.012229" xlink:href="#m987e3be3c0" y="307.584"/>
      </g>
     </g>
     <g id="text_7">
      <!-- 300 -->
      <defs>
       <path d="M 40.578125 39.3125 
Q 47.65625 37.796875 51.625 33 
Q 55.609375 28.21875 55.609375 21.1875 
Q 55.609375 10.40625 48.1875 4.484375 
Q 40.765625 -1.421875 27.09375 -1.421875 
Q 22.515625 -1.421875 17.65625 -0.515625 
Q 12.796875 0.390625 7.625 2.203125 
L 7.625 11.71875 
Q 11.71875 9.328125 16.59375 8.109375 
Q 21.484375 6.890625 26.8125 6.890625 
Q 36.078125 6.890625 40.9375 10.546875 
Q 45.796875 14.203125 45.796875 21.1875 
Q 45.796875 27.640625 41.28125 31.265625 
Q 36.765625 34.90625 28.71875 34.90625 
L 20.21875 34.90625 
L 20.21875 43.015625 
L 29.109375 43.015625 
Q 36.375 43.015625 40.234375 45.921875 
Q 44.09375 48.828125 44.09375 54.296875 
Q 44.09375 59.90625 40.109375 62.90625 
Q 36.140625 65.921875 28.71875 65.921875 
Q 24.65625 65.921875 20.015625 65.03125 
Q 15.375 64.15625 9.8125 62.3125 
L 9.8125 71.09375 
Q 15.4375 72.65625 20.34375 73.4375 
Q 25.25 74.21875 29.59375 74.21875 
Q 40.828125 74.21875 47.359375 69.109375 
Q 53.90625 64.015625 53.90625 55.328125 
Q 53.90625 49.265625 50.4375 45.09375 
Q 46.96875 40.921875 40.578125 39.3125 
z
" id="DejaVuSans-33"/>
      </defs>
      <g transform="translate(374.468479 322.182437)scale(0.1 -0.1)">
       <use xlink:href="#DejaVuSans-33"/>
       <use x="63.623047" xlink:href="#DejaVuSans-30"/>
       <use x="127.246094" xlink:href="#DejaVuSans-30"/>
      </g>
     </g>
    </g>
   </g>
   <g id="matplotlib.axis_2">
    <g id="ytick_1">
     <g id="line2d_8">
      <defs>
       <path d="M 0 0 
L -3.5 0 
" id="m25e4580c48" style="stroke:#000000;stroke-width:0.8;"/>
      </defs>
      <g>
       <use style="stroke:#000000;stroke-width:0.8;" x="57.6" xlink:href="#m25e4580c48" y="281.261961"/>
      </g>
     </g>
     <g id="text_8">
      <!-- 75 -->
      <defs>
       <path d="M 8.203125 72.90625 
L 55.078125 72.90625 
L 55.078125 68.703125 
L 28.609375 0 
L 18.3125 0 
L 43.21875 64.59375 
L 8.203125 64.59375 
z
" id="DejaVuSans-37"/>
      </defs>
      <g transform="translate(37.875 285.061179)scale(0.1 -0.1)">
       <use xlink:href="#DejaVuSans-37"/>
       <use x="63.623047" xlink:href="#DejaVuSans-35"/>
      </g>
     </g>
    </g>
    <g id="ytick_2">
     <g id="line2d_9">
      <g>
       <use style="stroke:#000000;stroke-width:0.8;" x="57.6" xlink:href="#m25e4580c48" y="245.752779"/>
      </g>
     </g>
     <g id="text_9">
      <!-- 100 -->
      <g transform="translate(31.5125 249.551997)scale(0.1 -0.1)">
       <use xlink:href="#DejaVuSans-31"/>
       <use x="63.623047" xlink:href="#DejaVuSans-30"/>
       <use x="127.246094" xlink:href="#DejaVuSans-30"/>
      </g>
     </g>
    </g>
    <g id="ytick_3">
     <g id="line2d_10">
      <g>
       <use style="stroke:#000000;stroke-width:0.8;" x="57.6" xlink:href="#m25e4580c48" y="210.243596"/>
      </g>
     </g>
     <g id="text_10">
      <!-- 125 -->
      <g transform="translate(31.5125 214.042815)scale(0.1 -0.1)">
       <use xlink:href="#DejaVuSans-31"/>
       <use x="63.623047" xlink:href="#DejaVuSans-32"/>
       <use x="127.246094" xlink:href="#DejaVuSans-35"/>
      </g>
     </g>
    </g>
    <g id="ytick_4">
     <g id="line2d_11">
      <g>
       <use style="stroke:#000000;stroke-width:0.8;" x="57.6" xlink:href="#m25e4580c48" y="174.734414"/>
      </g>
     </g>
     <g id="text_11">
      <!-- 150 -->
      <g transform="translate(31.5125 178.533633)scale(0.1 -0.1)">
       <use xlink:href="#DejaVuSans-31"/>
       <use x="63.623047" xlink:href="#DejaVuSans-35"/>
       <use x="127.246094" xlink:href="#DejaVuSans-30"/>
      </g>
     </g>
    </g>
    <g id="ytick_5">
     <g id="line2d_12">
      <g>
       <use style="stroke:#000000;stroke-width:0.8;" x="57.6" xlink:href="#m25e4580c48" y="139.225232"/>
      </g>
     </g>
     <g id="text_12">
      <!-- 175 -->
      <g transform="translate(31.5125 143.024451)scale(0.1 -0.1)">
       <use xlink:href="#DejaVuSans-31"/>
       <use x="63.623047" xlink:href="#DejaVuSans-37"/>
       <use x="127.246094" xlink:href="#DejaVuSans-35"/>
      </g>
     </g>
    </g>
    <g id="ytick_6">
     <g id="line2d_13">
      <g>
       <use style="stroke:#000000;stroke-width:0.8;" x="57.6" xlink:href="#m25e4580c48" y="103.71605"/>
      </g>
     </g>
     <g id="text_13">
      <!-- 200 -->
      <g transform="translate(31.5125 107.515269)scale(0.1 -0.1)">
       <use xlink:href="#DejaVuSans-32"/>
       <use x="63.623047" xlink:href="#DejaVuSans-30"/>
       <use x="127.246094" xlink:href="#DejaVuSans-30"/>
      </g>
     </g>
    </g>
    <g id="ytick_7">
     <g id="line2d_14">
      <g>
       <use style="stroke:#000000;stroke-width:0.8;" x="57.6" xlink:href="#m25e4580c48" y="68.206868"/>
      </g>
     </g>
     <g id="text_14">
      <!-- 225 -->
      <g transform="translate(31.5125 72.006087)scale(0.1 -0.1)">
       <use xlink:href="#DejaVuSans-32"/>
       <use x="63.623047" xlink:href="#DejaVuSans-32"/>
       <use x="127.246094" xlink:href="#DejaVuSans-35"/>
      </g>
     </g>
    </g>
   </g>
   <g id="line2d_15">
    <path clip-path="url(#pe960204845)" d="M 73.832727 285.222045 
L 74.866659 286.328803 
L 75.900591 292.744653 
L 76.934522 293.294207 
L 77.968454 292.682083 
L 79.002386 292.622298 
L 80.036317 287.817841 
L 81.070249 288.4163 
L 82.104181 292.102057 
L 83.138112 291.914769 
L 84.172044 290.739633 
L 85.205976 280.701343 
L 86.239907 281.103444 
L 87.273839 277.955927 
L 88.307771 276.195422 
L 89.341702 276.734865 
L 90.375634 271.842047 
L 91.409566 274.927026 
L 92.443497 275.523751 
L 93.477429 278.214031 
L 94.511361 269.566568 
L 95.545292 265.97459 
L 96.579224 265.879001 
L 97.613156 265.474549 
L 98.647087 265.899428 
L 99.681019 261.719026 
L 100.714951 261.921355 
L 101.748882 261.91365 
L 102.782814 262.056118 
L 103.816746 260.431753 
L 104.850677 263.989942 
L 105.884609 260.754801 
L 106.918541 261.909868 
L 107.952472 256.443331 
L 108.986404 255.757681 
L 110.020336 254.331939 
L 111.054268 252.214262 
L 112.088199 254.17352 
L 113.122131 252.012139 
L 114.156063 246.325392 
L 115.189994 252.502904 
L 116.223926 249.714759 
L 117.257858 245.854956 
L 118.291789 247.567683 
L 119.325721 244.909891 
L 120.359653 246.004837 
L 121.393584 252.66788 
L 122.427516 245.573282 
L 123.461448 246.355702 
L 124.495379 246.200501 
L 125.529311 242.395282 
L 126.563243 242.583556 
L 127.597174 243.180595 
L 128.631106 242.190027 
L 129.665038 243.204934 
L 130.698969 240.103191 
L 131.732901 240.3041 
L 132.766833 244.702457 
L 133.800764 238.403305 
L 134.834696 237.680042 
L 135.868628 238.076627 
L 136.902559 237.108924 
L 137.936491 239.87195 
L 138.970423 237.410375 
L 140.004354 231.531854 
L 141.038286 231.983456 
L 142.072218 231.578169 
L 143.106149 232.154392 
L 144.140081 231.412002 
L 145.174013 231.842711 
L 146.207944 233.024154 
L 147.241876 232.33003 
L 148.275808 231.359759 
L 149.309739 231.765566 
L 150.343671 230.91208 
L 151.377603 231.766053 
L 152.411534 231.921525 
L 153.445466 229.717459 
L 154.479398 230.52075 
L 155.513329 228.707732 
L 156.547261 230.177936 
L 157.581193 227.941241 
L 158.615124 227.330472 
L 159.649056 229.170691 
L 160.682988 228.479904 
L 161.71692 225.457148 
L 162.750851 232.596848 
L 163.784783 225.731172 
L 165.852646 225.891531 
L 166.886578 226.66176 
L 167.92051 226.398725 
L 168.954441 225.019861 
L 169.988373 224.826061 
L 171.022305 225.489008 
L 172.056236 225.096606 
L 173.090168 221.48147 
L 174.1241 220.980085 
L 175.158031 221.836345 
L 176.191963 220.226772 
L 177.225895 222.213706 
L 178.259826 220.330001 
L 179.293758 219.802413 
L 180.32769 220.922966 
L 181.361621 220.438897 
L 183.429485 221.684135 
L 184.463416 220.189299 
L 185.497348 220.281442 
L 186.53128 220.748757 
L 187.565211 221.583464 
L 188.599143 221.190888 
L 189.633075 221.459299 
L 190.667006 221.013234 
L 191.700938 221.770589 
L 192.73487 221.358215 
L 193.768801 219.679212 
L 194.802733 221.449307 
L 195.836665 219.226451 
L 196.870596 221.577417 
L 197.904528 220.654046 
L 198.93846 222.16984 
L 199.972391 223.0182 
L 201.006323 220.619337 
L 202.040255 220.130934 
L 203.074186 221.045939 
L 204.108118 222.947156 
L 205.14205 221.649816 
L 206.175981 221.383096 
L 207.209913 218.494789 
L 208.243845 218.667329 
L 209.277776 219.471682 
L 210.311708 217.995441 
L 211.34564 218.546349 
L 212.379572 217.60331 
L 213.413503 217.396484 
L 215.481367 217.943892 
L 216.515298 216.852847 
L 217.54923 218.856155 
L 218.583162 216.911462 
L 219.617093 216.729722 
L 220.651025 215.251672 
L 221.684957 215.873614 
L 222.718888 217.062068 
L 223.75282 217.398543 
L 224.786752 216.872039 
L 225.820683 215.77162 
L 226.854615 214.851695 
L 227.888547 217.293743 
L 228.922478 214.501296 
L 229.95641 214.044828 
L 232.024273 214.807439 
L 233.058205 214.274509 
L 234.092137 213.894157 
L 235.126068 213.717261 
L 236.16 213.177384 
L 237.193932 212.213799 
L 238.227863 213.589769 
L 239.261795 211.166079 
L 240.295727 210.559991 
L 241.329658 211.641565 
L 242.36359 210.815267 
L 243.397522 211.496225 
L 244.431453 211.783968 
L 245.465385 210.737309 
L 246.499317 208.859781 
L 247.533248 208.95407 
L 248.56718 210.231752 
L 249.601112 209.137251 
L 250.635043 210.639575 
L 252.702907 207.90998 
L 253.736838 208.640135 
L 254.77077 207.261391 
L 255.804702 206.956819 
L 256.838633 207.264468 
L 257.872565 206.548845 
L 258.906497 205.452154 
L 259.940428 206.019718 
L 260.97436 205.889886 
L 262.008292 209.484778 
L 263.042224 203.619998 
L 264.076155 203.227976 
L 265.110087 203.921666 
L 267.17795 202.737427 
L 268.211882 202.02863 
L 269.245814 202.664952 
L 270.279745 200.975969 
L 271.313677 201.64285 
L 272.347609 200.486374 
L 273.38154 196.453836 
L 274.415472 197.677109 
L 275.449404 196.549588 
L 276.483335 197.198653 
L 277.517267 194.160997 
L 278.551199 194.448209 
L 279.58513 194.251114 
L 280.619062 193.076216 
L 281.652994 193.807639 
L 282.686925 191.082119 
L 283.720857 194.806942 
L 284.754789 189.988538 
L 285.78872 188.440257 
L 286.822652 188.682323 
L 287.856584 188.27695 
L 288.890515 187.150383 
L 289.924447 186.581508 
L 290.958379 184.914262 
L 291.99231 184.241573 
L 293.026242 184.457545 
L 294.060174 182.99264 
L 295.094105 196.683029 
L 296.128037 183.009588 
L 297.161969 179.660447 
L 298.1959 178.400612 
L 299.229832 179.729497 
L 300.263764 177.963812 
L 301.297695 177.984835 
L 302.331627 175.336666 
L 303.365559 171.33809 
L 304.39949 173.486717 
L 305.433422 168.796466 
L 306.467354 170.037597 
L 307.501285 170.229057 
L 308.535217 166.966044 
L 309.569149 166.037482 
L 310.60308 163.582009 
L 311.637012 150.818382 
L 312.670944 160.912318 
L 313.704876 159.833952 
L 314.738807 157.385869 
L 315.772739 155.533145 
L 316.806671 149.653866 
L 317.840602 153.855388 
L 318.874534 146.653335 
L 319.908466 149.156967 
L 320.942397 147.7765 
L 321.976329 144.606486 
L 323.010261 143.34715 
L 324.044192 136.281681 
L 325.078124 135.047659 
L 326.112056 137.378165 
L 327.145987 133.515437 
L 328.179919 121.258722 
L 329.213851 127.886178 
L 330.247782 130.48309 
L 331.281714 128.666756 
L 332.315646 123.600477 
L 333.349577 123.214891 
L 334.383509 121.230395 
L 335.417441 121.706293 
L 336.451372 115.989128 
L 337.485304 119.463692 
L 338.519236 106.486304 
L 339.553167 109.859806 
L 340.587099 108.984561 
L 342.654962 104.832929 
L 343.688894 103.807337 
L 344.722826 100.887735 
L 345.756757 102.672058 
L 346.790689 100.223498 
L 347.824621 96.932267 
L 348.858552 98.502612 
L 349.892484 115.92853 
L 350.926416 94.584226 
L 351.960347 94.004081 
L 354.028211 88.65317 
L 355.062142 83.389558 
L 357.130006 88.440232 
L 358.163937 81.677427 
L 359.197869 83.740813 
L 360.231801 69.594336 
L 361.265732 82.591295 
L 362.299664 77.17259 
L 363.333596 75.394834 
L 364.367528 75.644443 
L 365.401459 72.040837 
L 366.435391 71.983187 
L 367.469323 68.736775 
L 368.503254 66.370118 
L 369.537186 62.994556 
L 370.571118 66.437998 
L 371.605049 60.656703 
L 372.638981 60.218711 
L 373.672913 60.740057 
L 374.706844 61.568663 
L 375.740776 57.67635 
L 376.774708 57.29822 
L 377.808639 56.434005 
L 378.842571 56.596879 
L 379.876503 55.345171 
L 380.910434 62.354615 
L 381.944366 56.025294 
L 382.978298 56.656805 
L 384.012229 57.720086 
L 385.046161 57.801274 
L 386.080093 56.083335 
L 387.114024 58.053592 
L 388.147956 56.850475 
L 389.181888 57.556454 
L 390.215819 55.897076 
L 391.249751 57.899453 
L 392.283683 55.53674 
L 393.317614 53.568 
L 394.351546 56.401366 
L 396.419409 53.70298 
L 397.453341 54.983166 
L 398.487273 54.104366 
L 398.487273 54.104366 
" style="fill:none;stroke:#1f77b4;stroke-linecap:square;stroke-width:1.5;"/>
   </g>
   <g id="line2d_16">
    <path clip-path="url(#pe960204845)" d="M 75.900591 287.541813 
L 76.934522 294.876732 
L 77.968454 294.244615 
L 79.002386 292.541122 
L 80.036317 293.280488 
L 81.070249 283.315984 
L 82.104181 289.754017 
L 83.138112 294.508528 
L 84.172044 292.402988 
L 85.205976 289.897818 
L 86.239907 262.982122 
L 87.273839 281.080557 
L 88.307771 273.840685 
L 89.341702 274.070766 
L 90.375634 277.523451 
L 91.409566 264.042738 
L 92.443497 278.966163 
L 93.477429 276.677431 
L 94.511361 280.629009 
L 95.545292 251.519553 
L 96.579224 260.260048 
L 97.613156 266.635858 
L 98.647087 265.680118 
L 99.681019 267.538715 
L 100.714951 254.606884 
L 101.748882 262.960904 
L 102.782814 262.589363 
L 103.816746 262.999743 
L 104.850677 258.292002 
L 105.884609 270.705651 
L 106.918541 255.55014 
L 107.952472 264.59085 
L 108.986404 246.904876 
L 110.020336 255.141927 
L 111.054268 252.205723 
L 112.088199 248.890218 
L 113.122131 258.092241 
L 114.156063 248.628277 
L 115.189994 235.861941 
L 116.223926 262.996383 
L 117.257858 245.384488 
L 118.291789 238.830612 
L 119.325721 250.553584 
L 120.359653 240.421958 
L 121.393584 248.137598 
L 122.427516 263.942348 
L 123.461448 232.915182 
L 124.495379 247.994794 
L 125.529311 246.486412 
L 126.563243 235.705115 
L 127.597174 243.712886 
L 128.631106 244.961342 
L 129.665038 240.981384 
L 130.698969 245.621505 
L 131.732901 234.920202 
L 132.766833 241.339857 
L 133.800764 252.013569 
L 134.834696 226.128472 
L 135.868628 236.758145 
L 136.902559 239.248664 
L 137.936491 235.814022 
L 138.970423 245.231758 
L 140.004354 233.581521 
L 141.038286 220.353354 
L 142.072218 233.167955 
L 143.106149 231.311157 
L 144.140081 233.542943 
L 145.174013 230.543063 
L 147.241876 235.356915 
L 148.275808 231.6081 
L 149.309739 230.080668 
L 150.343671 232.866808 
L 151.377603 229.812376 
L 152.411534 233.577923 
L 153.445466 232.62253 
L 154.479398 226.133565 
L 155.513329 232.177257 
L 156.547261 225.852205 
L 157.581193 232.841103 
L 158.615124 224.363394 
L 159.649056 226.520257 
L 160.682988 232.290997 
L 161.71692 227.553239 
L 162.750851 220.7418 
L 163.784783 243.931871 
L 164.818715 214.236949 
L 165.852646 226.145117 
L 166.886578 226.09386 
L 167.92051 227.962037 
L 168.954441 226.13272 
L 169.988373 223.027964 
L 171.022305 224.661443 
L 172.056236 226.588527 
L 173.090168 224.632986 
L 174.1241 216.515267 
L 175.158031 220.37546 
L 176.191963 223.085593 
L 177.225895 218.154598 
L 178.259826 224.94471 
L 179.293758 217.886827 
L 180.32769 219.160835 
L 181.361621 222.468148 
L 182.395553 219.856585 
L 183.429485 222.045675 
L 184.463416 222.569838 
L 185.497348 218.271112 
L 186.53128 220.456604 
L 187.565211 221.434039 
L 188.599143 222.792269 
L 189.633075 220.734865 
L 190.667006 221.906122 
L 191.700938 220.483739 
L 192.73487 222.885312 
L 193.768801 220.875762 
L 194.802733 217.549702 
L 195.836665 223.856656 
L 196.870596 216.437179 
L 197.904528 224.712114 
L 198.93846 219.481922 
L 199.972391 224.299611 
L 201.006323 224.304487 
L 202.040255 217.459043 
L 203.074186 219.541718 
L 204.108118 222.332258 
L 205.14205 225.614755 
L 206.175981 219.92997 
L 207.209913 221.100512 
L 208.243845 214.9537 
L 209.277776 218.884959 
L 210.311708 220.520128 
L 211.34564 216.199685 
L 212.379572 219.222929 
L 213.413503 216.451266 
L 214.447435 217.112837 
L 215.481367 218.004295 
L 216.515298 218.231797 
L 217.54923 215.531851 
L 218.583162 221.317286 
L 219.617093 214.603116 
L 220.651025 216.457183 
L 221.684957 213.492327 
L 222.718888 216.482822 
L 223.75282 218.39272 
L 224.786752 217.755531 
L 225.820683 216.204107 
L 226.854615 214.439657 
L 227.888547 213.712851 
L 228.922478 220.085778 
L 229.95641 211.235465 
L 230.990342 213.410229 
L 232.024273 214.677823 
L 233.058205 215.13079 
L 234.092137 213.558083 
L 235.126068 213.342089 
L 236.16 213.388144 
L 237.193932 212.441962 
L 238.227863 210.988089 
L 239.261795 214.936925 
L 240.295727 208.08344 
L 241.329658 209.759767 
L 242.36359 212.697835 
L 243.397522 209.746113 
L 244.431453 212.130455 
L 245.465385 211.980347 
L 246.499317 209.398021 
L 247.533248 206.358133 
L 249.601112 211.568862 
L 250.635043 207.732293 
L 251.668975 212.183078 
L 252.702907 207.486 
L 253.736838 206.138823 
L 254.77077 209.509746 
L 255.804702 205.453801 
L 257.872565 207.752557 
L 258.906497 205.722851 
L 259.940428 204.093274 
L 260.97436 206.941572 
L 262.008292 205.915677 
L 263.042224 213.111617 
L 264.076155 192.692776 
L 265.110087 203.042216 
L 266.144019 205.208505 
L 267.17795 202.894579 
L 268.211882 202.229041 
L 269.245814 201.406266 
L 270.279745 203.991995 
L 271.313677 198.705193 
L 272.347609 203.097829 
L 273.38154 199.17409 
L 274.415472 189.573542 
L 275.449404 200.172049 
L 276.483335 195.435656 
L 277.517267 198.90452 
L 278.551199 189.574452 
L 279.58513 195.708521 
L 280.619062 194.76689 
L 281.652994 192.024356 
L 282.686925 195.742179 
L 283.720857 187.341995 
L 284.754789 200.483209 
L 285.78872 181.98391 
L 286.822652 186.95914 
L 287.856584 189.970203 
L 288.890515 188.614183 
L 289.924447 186.400884 
L 290.958379 186.701923 
L 291.99231 183.381932 
L 293.026242 184.240143 
L 294.060174 185.70598 
L 295.094105 181.836641 
L 296.128037 208.497764 
L 297.161969 150.451674 
L 298.1959 175.6879 
L 299.229832 177.63462 
L 300.263764 182.251529 
L 301.297695 176.505366 
L 302.331627 178.884897 
L 304.39949 167.223434 
L 305.433422 176.55296 
L 306.467354 164.062718 
L 307.501285 172.076644 
L 308.535217 171.223678 
L 309.569149 164.274485 
L 310.60308 165.959828 
L 311.637012 162.068079 
L 312.670944 140.289251 
L 313.704876 168.416342 
L 314.738807 159.821945 
L 315.772739 156.234659 
L 316.806671 154.95831 
L 317.840602 145.983225 
L 318.874534 157.534589 
L 319.908466 142.238398 
L 320.942397 151.439663 
L 321.976329 147.538291 
L 323.010261 143.193314 
L 324.044192 143.087008 
L 325.078124 133.127618 
L 326.112056 134.706351 
L 327.145987 138.591295 
L 328.179919 132.083518 
L 329.213851 117.553253 
L 330.247782 129.805871 
L 331.281714 131.427668 
L 332.315646 128.130455 
L 333.349577 122.119208 
L 334.383509 123.100652 
L 335.417441 120.693813 
L 336.451372 121.79628 
L 337.485304 114.676389 
L 338.519236 120.177538 
L 339.553167 104.013709 
L 340.587099 110.362795 
L 341.621031 108.809204 
L 342.654962 106.442676 
L 343.688894 104.445501 
L 344.722826 103.553567 
L 345.756757 100.373822 
L 346.790689 102.773206 
L 347.824621 99.779481 
L 348.858552 96.418311 
L 349.892484 98.540561 
L 350.926416 118.591806 
L 351.960347 91.096875 
L 352.994279 93.721377 
L 355.062142 87.689411 
L 356.096074 82.119537 
L 358.163937 87.94394 
L 359.197869 80.345833 
L 360.231801 83.022936 
L 361.265732 67.244865 
L 362.299664 82.504906 
L 363.333596 75.938351 
L 364.367528 74.312068 
L 365.401459 74.723683 
L 366.435391 70.536053 
L 367.469323 70.709004 
L 368.503254 67.205485 
L 369.537186 65.062451 
L 370.571118 62.025965 
L 371.605049 65.39717 
L 372.638981 59.864161 
L 373.672913 59.73733 
L 374.706844 60.221074 
L 375.740776 60.95837 
L 376.774708 57.786406 
L 377.808639 57.67726 
L 378.842571 57.265992 
L 379.876503 57.353746 
L 380.910434 56.899283 
L 381.944366 61.893759 
L 382.978298 57.019439 
L 384.012229 57.389203 
L 385.046161 57.951446 
L 386.080093 57.973033 
L 387.114024 57.11894 
L 388.147956 58.18389 
L 389.181888 57.437729 
L 390.215819 57.846549 
L 391.249751 57.056846 
L 392.283683 58.086643 
L 393.317614 56.936973 
L 394.351546 56.561486 
L 395.385478 57.320478 
L 395.385478 57.320478 
" style="fill:none;stroke:#ff7f0e;stroke-linecap:square;stroke-width:1.5;"/>
   </g>
   <g id="line2d_17">
    <path clip-path="url(#pe960204845)" d="M 76.934522 287.846135 
L 77.968454 295.09834 
L 79.002386 294.415746 
L 80.036317 292.398112 
L 81.070249 293.291964 
L 82.104181 280.142654 
L 83.138112 289.78269 
L 84.172044 294.87619 
L 86.239907 289.613218 
L 87.273839 255.997711 
L 88.307771 280.844169 
L 89.341702 272.257032 
L 90.375634 273.279872 
L 91.409566 277.348387 
L 92.443497 258.757453 
L 93.477429 278.812978 
L 94.511361 276.496548 
L 95.545292 280.803391 
L 96.579224 251.597836 
L 97.613156 257.531862 
L 98.647087 265.153809 
L 99.681019 264.077979 
L 100.714951 266.226085 
L 101.748882 253.359034 
L 102.782814 261.9323 
L 103.816746 261.590277 
L 104.850677 261.946149 
L 105.884609 257.333466 
L 106.918541 269.174664 
L 107.952472 254.328862 
L 108.986404 263.382446 
L 110.020336 245.214723 
L 111.054268 254.708921 
L 112.088199 251.770072 
L 113.122131 248.357341 
L 114.156063 258.281035 
L 115.189994 248.064646 
L 116.223926 232.495288 
L 117.257858 261.812599 
L 118.291789 244.195979 
L 119.325721 237.130228 
L 120.359653 250.882689 
L 121.393584 239.260454 
L 122.427516 248.401229 
L 123.461448 262.357937 
L 124.495379 225.540828 
L 125.529311 248.186709 
L 126.563243 246.287497 
L 127.597174 233.696757 
L 128.631106 243.244574 
L 129.665038 244.702306 
L 130.698969 240.372739 
L 131.732901 245.565892 
L 132.766833 233.222831 
L 133.800764 240.962333 
L 134.834696 252.54625 
L 135.868628 218.164112 
L 136.902559 236.412676 
L 137.936491 239.118192 
L 138.970423 235.334592 
L 140.004354 245.433144 
L 141.038286 232.1444 
L 142.072218 212.319054 
L 143.106149 233.183841 
L 144.140081 231.076437 
L 145.174013 233.5911 
L 146.207944 230.177221 
L 148.275808 235.59805 
L 149.309739 231.215557 
L 150.343671 229.607371 
L 151.377603 232.879746 
L 152.411534 229.414329 
L 153.445466 233.720402 
L 154.479398 232.552093 
L 155.513329 224.87865 
L 156.547261 232.380377 
L 157.581193 224.876375 
L 158.615124 233.215788 
L 159.649056 223.125254 
L 160.682988 226.286404 
L 161.71692 232.818 
L 162.750851 227.284233 
L 163.784783 218.606221 
L 164.818715 244.431002 
L 165.852646 202.344082 
L 166.886578 226.278081 
L 167.92051 226.193751 
L 168.954441 228.39422 
L 169.988373 226.077259 
L 171.022305 222.336289 
L 173.090168 226.981113 
L 174.1241 224.480429 
L 175.158031 212.891571 
L 176.191963 220.193081 
L 177.225895 223.531842 
L 178.259826 217.083839 
L 179.293758 225.87973 
L 180.32769 216.535055 
L 181.361621 218.968032 
L 182.395553 223.04398 
L 183.429485 219.68955 
L 184.463416 222.410671 
L 185.497348 222.893266 
L 186.53128 217.311406 
L 187.565211 220.5936 
L 188.599143 221.724155 
L 189.633075 223.230369 
L 190.667006 220.606625 
L 191.700938 222.08551 
L 192.73487 220.330835 
L 193.768801 223.286155 
L 194.802733 220.733933 
L 195.836665 216.365159 
L 196.870596 224.707736 
L 197.904528 214.600732 
L 198.93846 225.790545 
L 199.972391 219.032466 
L 201.006323 225.04187 
L 202.040255 224.75195 
L 203.074186 215.526649 
L 205.14205 222.814441 
L 206.175981 226.513386 
L 207.209913 219.239661 
L 208.243845 221.030659 
L 209.277776 212.188691 
L 210.311708 219.122496 
L 211.34564 221.011825 
L 212.379572 215.137206 
L 213.413503 219.653486 
L 214.447435 215.889067 
L 216.515298 218.338255 
L 217.54923 218.538775 
L 218.583162 214.828949 
L 219.617093 222.323155 
L 220.651025 213.0202 
L 221.684957 216.50196 
L 222.718888 212.457957 
L 223.75282 217.049162 
L 224.786752 219.18758 
L 225.820683 218.12367 
L 227.888547 213.743735 
L 228.922478 213.206849 
L 229.95641 221.329531 
L 230.990342 208.697807 
L 232.024273 213.29534 
L 233.058205 215.102247 
L 234.092137 215.577776 
L 235.126068 213.380342 
L 236.16 213.285587 
L 237.193932 213.47462 
L 238.227863 212.293285 
L 239.261795 210.573808 
L 240.295727 215.88393 
L 241.329658 206.424192 
L 242.36359 209.621124 
L 243.397522 213.426441 
L 244.431453 209.471905 
L 245.465385 212.671025 
L 246.499317 212.338105 
L 248.56718 205.388912 
L 249.601112 209.215295 
L 250.635043 212.27495 
L 251.668975 207.303729 
L 252.702907 213.00906 
L 253.736838 206.878698 
L 254.77077 205.533753 
L 255.804702 209.880161 
L 256.838633 204.816223 
L 257.872565 206.532904 
L 258.906497 207.852839 
L 259.940428 205.37658 
L 260.97436 203.499084 
L 262.008292 206.984983 
L 263.042224 205.732474 
L 264.076155 214.461829 
L 265.110087 186.629189 
L 266.144019 202.502079 
L 267.17795 205.012602 
L 268.211882 202.317164 
L 269.245814 201.584137 
L 270.279745 200.683794 
L 271.313677 203.620692 
L 272.347609 197.656801 
L 273.38154 202.610314 
L 274.415472 198.2664 
L 275.449404 187.196482 
L 276.483335 199.429811 
L 277.517267 194.489713 
L 278.551199 198.136426 
L 279.58513 187.902461 
L 280.619062 194.947297 
L 281.652994 193.970534 
L 282.686925 191.064109 
L 283.720857 195.012273 
L 284.754789 185.802772 
L 285.78872 199.621271 
L 286.822652 179.144649 
L 287.856584 185.837753 
L 288.890515 189.264224 
L 289.924447 187.785491 
L 290.958379 185.385457 
L 291.99231 185.817293 
L 293.026242 182.205213 
L 294.060174 183.314312 
L 295.094105 184.960166 
L 296.128037 180.722731 
L 297.161969 208.299824 
L 298.1959 145.036697 
L 299.229832 173.977699 
L 300.263764 176.592101 
L 301.297695 181.669043 
L 302.331627 175.324681 
L 303.365559 178.112533 
L 304.39949 171.232846 
L 305.433422 165.260979 
L 306.467354 176.078341 
L 307.501285 162.045517 
L 308.535217 171.257011 
L 309.569149 170.188051 
L 310.60308 162.455333 
L 311.637012 164.427692 
L 312.670944 160.344678 
L 313.704876 138.711732 
L 314.738807 167.81875 
L 315.772739 158.203356 
L 316.806671 154.652026 
L 317.840602 153.446894 
L 318.874534 144.677335 
L 319.908466 156.096862 
L 320.942397 140.909036 
L 321.976329 150.168818 
L 323.010261 146.330016 
L 324.044192 141.978993 
L 325.078124 141.910549 
L 326.112056 131.754997 
L 327.145987 133.398922 
L 328.179919 137.386553 
L 329.213851 130.722881 
L 330.247782 116.441597 
L 331.281714 128.441161 
L 332.315646 130.081726 
L 333.349577 126.752762 
L 334.383509 120.890215 
L 335.417441 121.820293 
L 336.451372 119.482461 
L 337.485304 120.547888 
L 338.519236 113.438596 
L 339.553167 118.947331 
L 340.587099 102.834346 
L 341.621031 109.01111 
L 342.654962 107.493734 
L 343.688894 105.19656 
L 344.722826 103.242992 
L 345.756757 102.351621 
L 346.790689 99.022462 
L 347.824621 101.556219 
L 348.858552 98.369972 
L 349.892484 94.614829 
L 350.926416 96.989115 
L 351.960347 117.320571 
L 352.994279 89.143827 
L 354.028211 91.754783 
L 356.096074 85.82765 
L 357.130006 80.098847 
L 359.197869 86.093167 
L 360.231801 78.25852 
L 361.265732 81.039784 
L 362.299664 65.338327 
L 363.333596 80.510787 
L 364.367528 73.789855 
L 365.401459 72.198032 
L 366.435391 72.599547 
L 367.469323 68.583937 
L 368.503254 68.750841 
L 369.537186 65.298297 
L 370.571118 63.211222 
L 371.605049 60.533491 
L 372.638981 63.52843 
L 373.672913 59.230809 
L 374.706844 59.147064 
L 375.740776 59.459525 
L 376.774708 59.894872 
L 377.808639 57.362892 
L 378.842571 57.227804 
L 379.876503 56.681989 
L 380.910434 56.802144 
L 381.944366 56.184201 
L 382.978298 60.449096 
L 384.012229 56.342567 
L 385.046161 56.850345 
L 386.080093 57.561201 
L 387.114024 57.586038 
L 388.147956 56.479237 
L 389.181888 57.822166 
L 390.215819 56.915343 
L 391.249751 57.436927 
L 392.283683 56.394214 
L 393.317614 57.715492 
L 394.351546 56.233161 
L 395.385478 55.799873 
L 396.419409 56.757303 
L 396.419409 56.757303 
" style="fill:none;stroke:#2ca02c;stroke-linecap:square;stroke-width:1.5;"/>
   </g>
   <g id="line2d_18">
    <path clip-path="url(#pe960204845)" d="M 77.968454 287.385387 
L 79.002386 295.488 
L 80.036317 294.584308 
L 81.070249 291.784427 
L 82.104181 293.083653 
L 83.138112 277.698104 
L 84.172044 289.217207 
L 85.205976 295.280415 
L 86.239907 291.806328 
L 87.273839 288.805126 
L 88.307771 259.528971 
L 89.341702 280.97412 
L 90.375634 270.028237 
L 91.409566 271.91787 
L 92.443497 276.672902 
L 93.477429 260.432956 
L 94.511361 278.645737 
L 95.545292 275.646313 
L 96.579224 280.952426 
L 97.613156 246.990528 
L 98.647087 257.276965 
L 99.681019 265.594574 
L 100.714951 264.553248 
L 101.748882 266.663252 
L 102.782814 251.967969 
L 103.816746 262.503125 
L 104.850677 262.020748 
L 105.884609 262.498097 
L 106.918541 256.72636 
L 107.952472 270.65006 
L 108.986404 253.351319 
L 110.020336 264.435563 
L 111.054268 242.450559 
L 112.088199 254.47004 
L 113.122131 251.454317 
L 114.156063 247.641523 
L 115.189994 258.817617 
L 116.223926 247.300952 
L 117.257858 228.891639 
L 118.291789 264.587361 
L 119.325721 243.018415 
L 120.359653 235.626355 
L 121.393584 251.233707 
L 122.427516 238.151594 
L 123.461448 248.562846 
L 124.495379 265.371775 
L 125.529311 218.906892 
L 126.563243 248.267333 
L 127.597174 245.865479 
L 128.631106 231.788225 
L 129.665038 242.669197 
L 130.698969 244.146651 
L 131.732901 239.556769 
L 132.766833 245.169296 
L 133.800764 231.644619 
L 134.834696 240.313853 
L 135.868628 253.072018 
L 136.902559 210.139522 
L 137.936491 235.709276 
L 138.970423 238.414034 
L 140.004354 234.633056 
L 141.038286 245.087805 
L 142.072218 230.783894 
L 143.106149 205.009525 
L 144.140081 232.929941 
L 145.174013 230.619482 
L 146.207944 233.340841 
L 147.241876 229.600522 
L 148.275808 232.754281 
L 149.309739 235.249438 
L 150.343671 230.649521 
L 151.377603 228.93945 
L 152.411534 232.629726 
L 153.445466 228.800829 
L 154.479398 233.520706 
L 155.513329 232.247673 
L 156.547261 223.596059 
L 157.581193 232.252917 
L 158.615124 223.854836 
L 159.649056 233.184318 
L 160.682988 221.863166 
L 161.71692 225.845812 
L 162.750851 232.890778 
L 163.784783 226.782891 
L 164.818715 214.756323 
L 165.852646 243.542232 
L 166.886578 194.799053 
L 167.92051 226.119911 
L 168.954441 226.015642 
L 169.988373 228.366153 
L 171.022305 225.786818 
L 172.056236 221.805407 
L 174.1241 226.969041 
L 175.158031 224.199893 
L 176.191963 208.318225 
L 177.225895 220.036536 
L 178.259826 223.790141 
L 179.293758 215.662691 
L 180.32769 226.267072 
L 181.361621 214.810311 
L 182.395553 218.599091 
L 183.429485 223.42974 
L 184.463416 219.457692 
L 185.497348 222.712469 
L 186.53128 223.114115 
L 187.565211 216.009179 
L 188.599143 220.887855 
L 189.633075 222.083711 
L 190.667006 223.504685 
L 191.700938 220.601901 
L 192.73487 222.322527 
L 193.768801 220.241369 
L 194.802733 223.529262 
L 195.836665 220.734193 
L 196.870596 214.903505 
L 197.904528 225.14601 
L 198.93846 212.560904 
L 199.972391 226.260786 
L 201.006323 218.338364 
L 202.040255 225.38554 
L 203.074186 224.923297 
L 204.108118 213.122454 
L 205.14205 219.088859 
L 207.209913 226.837312 
L 208.243845 218.198377 
L 209.277776 221.154499 
L 210.311708 209.232374 
L 211.34564 219.26725 
L 212.379572 221.582673 
L 213.413503 213.964215 
L 214.447435 220.101534 
L 215.481367 215.141649 
L 217.54923 218.458519 
L 218.583162 218.660187 
L 219.617093 214.005112 
L 220.651025 223.048922 
L 221.684957 211.450007 
L 222.718888 216.252091 
L 223.75282 211.372179 
L 224.786752 217.261125 
L 225.820683 219.914192 
L 226.854615 218.249894 
L 228.922478 212.944128 
L 229.95641 212.54582 
L 230.990342 222.293333 
L 232.024273 206.064787 
L 233.058205 212.928827 
L 234.092137 215.155476 
L 235.126068 215.647455 
L 236.16 212.96695 
L 237.193932 212.964002 
L 238.227863 213.266537 
L 239.261795 211.882862 
L 240.295727 209.868565 
L 241.329658 216.441058 
L 242.36359 204.232675 
L 244.431453 213.861289 
L 245.465385 208.83658 
L 246.499317 212.925814 
L 247.533248 212.395994 
L 249.601112 203.735256 
L 250.635043 209.160332 
L 251.668975 212.828437 
L 252.702907 206.395367 
L 253.736838 213.651342 
L 254.77077 205.731282 
L 255.804702 204.344725 
L 256.838633 210.184624 
L 257.872565 203.581854 
L 258.906497 206.143981 
L 259.940428 207.885153 
L 260.97436 204.662842 
L 262.008292 202.44263 
L 263.042224 207.125967 
L 264.076155 205.415397 
L 265.110087 216.03096 
L 266.144019 181.758531 
L 267.17795 201.88225 
L 268.211882 205.109741 
L 269.245814 201.585741 
L 270.279745 200.803083 
L 271.313677 199.831153 
L 272.347609 203.601836 
L 273.38154 196.200543 
L 274.415472 202.543431 
L 275.449404 197.140483 
L 276.483335 184.827505 
L 277.517267 199.374371 
L 278.551199 193.377905 
L 279.58513 197.814126 
L 280.619062 186.110985 
L 281.652994 194.326081 
L 282.686925 193.165726 
L 283.720857 189.894304 
L 284.754789 194.504104 
L 285.78872 184.269401 
L 286.822652 200.160476 
L 287.856584 177.243854 
L 288.890515 184.599959 
L 289.924447 188.336529 
L 290.958379 186.731984 
L 291.99231 184.22612 
L 293.026242 184.731818 
L 294.060174 181.029297 
L 295.094105 182.235816 
L 296.128037 183.956529 
L 297.161969 179.59261 
L 298.1959 211.534315 
L 299.229832 146.139488 
L 300.263764 172.455143 
L 301.297695 175.39048 
L 302.331627 180.728756 
L 303.365559 174.007651 
L 304.39949 177.053868 
L 305.433422 169.593385 
L 306.467354 163.635888 
L 307.501285 174.973057 
L 308.535217 160.461019 
L 309.569149 169.65238 
L 310.60308 168.509883 
L 311.637012 160.868257 
L 312.670944 162.777785 
L 313.704876 158.755478 
L 314.738807 137.073442 
L 315.772739 165.997821 
L 316.806671 156.583769 
L 317.840602 152.873684 
L 318.874534 151.613481 
L 319.908466 142.632696 
L 320.942397 154.444051 
L 321.976329 138.970444 
L 323.010261 148.197781 
L 325.078124 139.927852 
L 326.112056 139.832317 
L 327.145987 129.997765 
L 328.179919 131.515553 
L 329.213851 135.347376 
L 330.247782 128.973452 
L 331.281714 114.395116 
L 332.315646 126.739628 
L 333.349577 128.324234 
L 334.383509 125.094229 
L 335.417441 118.977348 
L 336.451372 119.982481 
L 337.485304 117.526292 
L 338.519236 118.647115 
L 339.553167 111.609193 
L 340.587099 117.005531 
L 341.621031 101.070915 
L 342.654962 107.43034 
L 343.688894 105.898985 
L 344.722826 103.533953 
L 345.756757 101.511529 
L 346.790689 100.598854 
L 347.824621 97.263951 
L 348.858552 99.794067 
L 349.892484 96.622862 
L 350.926416 92.928164 
L 351.960347 95.271891 
L 352.994279 115.423504 
L 354.028211 87.320882 
L 355.062142 90.030104 
L 357.130006 84.036499 
L 358.163937 78.119639 
L 359.197869 81.476149 
L 360.231801 84.290378 
L 361.265732 76.122226 
L 362.299664 79.143237 
L 363.333596 63.298912 
L 364.367528 78.564349 
L 365.401459 71.594046 
L 366.435391 70.086207 
L 367.469323 70.462798 
L 368.503254 66.650004 
L 369.537186 66.814611 
L 370.571118 63.256476 
L 371.605049 61.091118 
L 372.638981 59.992444 
L 373.672913 61.397684 
L 374.706844 58.957879 
L 375.740776 58.870732 
L 377.808639 59.600681 
L 378.842571 57.054332 
L 379.876503 56.926114 
L 380.910434 56.412852 
L 381.944366 56.525813 
L 382.978298 55.925143 
L 384.012229 59.961322 
L 385.046161 56.086239 
L 386.080093 56.571044 
L 387.114024 57.245662 
L 388.147956 57.269698 
L 389.181888 56.220135 
L 390.215819 57.50121 
L 391.249751 56.631751 
L 392.283683 57.125745 
L 393.317614 56.137691 
L 394.351546 57.396139 
L 395.385478 55.976096 
L 396.419409 55.433489 
L 397.453341 56.483984 
L 397.453341 56.483984 
" style="fill:none;stroke:#d62728;stroke-linecap:square;stroke-width:1.5;"/>
   </g>
   <g id="patch_3">
    <path d="M 57.6 307.584 
L 57.6 41.472 
" style="fill:none;stroke:#000000;stroke-linecap:square;stroke-linejoin:miter;stroke-width:0.8;"/>
   </g>
   <g id="patch_4">
    <path d="M 414.72 307.584 
L 414.72 41.472 
" style="fill:none;stroke:#000000;stroke-linecap:square;stroke-linejoin:miter;stroke-width:0.8;"/>
   </g>
   <g id="patch_5">
    <path d="M 57.6 307.584 
L 414.72 307.584 
" style="fill:none;stroke:#000000;stroke-linecap:square;stroke-linejoin:miter;stroke-width:0.8;"/>
   </g>
   <g id="patch_6">
    <path d="M 57.6 41.472 
L 414.72 41.472 
" style="fill:none;stroke:#000000;stroke-linecap:square;stroke-linejoin:miter;stroke-width:0.8;"/>
   </g>
   <g id="legend_1">
    <g id="patch_7">
     <path d="M 64.6 108.1845 
L 122.279687 108.1845 
Q 124.279687 108.1845 124.279687 106.1845 
L 124.279687 48.472 
Q 124.279687 46.472 122.279687 46.472 
L 64.6 46.472 
Q 62.6 46.472 62.6 48.472 
L 62.6 106.1845 
Q 62.6 108.1845 64.6 108.1845 
z
" style="fill:#ffffff;opacity:0.8;stroke:#cccccc;stroke-linejoin:miter;"/>
    </g>
    <g id="line2d_19">
     <path d="M 66.6 54.570438 
L 86.6 54.570438 
" style="fill:none;stroke:#1f77b4;stroke-linecap:square;stroke-width:1.5;"/>
    </g>
    <g id="line2d_20"/>
    <g id="text_15">
     <!-- REAL -->
     <defs>
      <path d="M 44.390625 34.1875 
Q 47.5625 33.109375 50.5625 29.59375 
Q 53.5625 26.078125 56.59375 19.921875 
L 66.609375 0 
L 56 0 
L 46.6875 18.703125 
Q 43.0625 26.03125 39.671875 28.421875 
Q 36.28125 30.8125 30.421875 30.8125 
L 19.671875 30.8125 
L 19.671875 0 
L 9.8125 0 
L 9.8125 72.90625 
L 32.078125 72.90625 
Q 44.578125 72.90625 50.734375 67.671875 
Q 56.890625 62.453125 56.890625 51.90625 
Q 56.890625 45.015625 53.6875 40.46875 
Q 50.484375 35.9375 44.390625 34.1875 
z
M 19.671875 64.796875 
L 19.671875 38.921875 
L 32.078125 38.921875 
Q 39.203125 38.921875 42.84375 42.21875 
Q 46.484375 45.515625 46.484375 51.90625 
Q 46.484375 58.296875 42.84375 61.546875 
Q 39.203125 64.796875 32.078125 64.796875 
z
" id="DejaVuSans-52"/>
      <path d="M 9.8125 72.90625 
L 55.90625 72.90625 
L 55.90625 64.59375 
L 19.671875 64.59375 
L 19.671875 43.015625 
L 54.390625 43.015625 
L 54.390625 34.71875 
L 19.671875 34.71875 
L 19.671875 8.296875 
L 56.78125 8.296875 
L 56.78125 0 
L 9.8125 0 
z
" id="DejaVuSans-45"/>
      <path d="M 34.1875 63.1875 
L 20.796875 26.90625 
L 47.609375 26.90625 
z
M 28.609375 72.90625 
L 39.796875 72.90625 
L 67.578125 0 
L 57.328125 0 
L 50.6875 18.703125 
L 17.828125 18.703125 
L 11.1875 0 
L 0.78125 0 
z
" id="DejaVuSans-41"/>
      <path d="M 9.8125 72.90625 
L 19.671875 72.90625 
L 19.671875 8.296875 
L 55.171875 8.296875 
L 55.171875 0 
L 9.8125 0 
z
" id="DejaVuSans-4c"/>
     </defs>
     <g transform="translate(94.6 58.070438)scale(0.1 -0.1)">
      <use xlink:href="#DejaVuSans-52"/>
      <use x="69.482422" xlink:href="#DejaVuSans-45"/>
      <use x="132.666016" xlink:href="#DejaVuSans-41"/>
      <use x="201.074219" xlink:href="#DejaVuSans-4c"/>
     </g>
    </g>
    <g id="line2d_21">
     <path d="M 66.6 69.248563 
L 86.6 69.248563 
" style="fill:none;stroke:#ff7f0e;stroke-linecap:square;stroke-width:1.5;"/>
    </g>
    <g id="line2d_22"/>
    <g id="text_16">
     <!-- 1st -->
     <defs>
      <path d="M 44.28125 53.078125 
L 44.28125 44.578125 
Q 40.484375 46.53125 36.375 47.5 
Q 32.28125 48.484375 27.875 48.484375 
Q 21.1875 48.484375 17.84375 46.4375 
Q 14.5 44.390625 14.5 40.28125 
Q 14.5 37.15625 16.890625 35.375 
Q 19.28125 33.59375 26.515625 31.984375 
L 29.59375 31.296875 
Q 39.15625 29.25 43.1875 25.515625 
Q 47.21875 21.78125 47.21875 15.09375 
Q 47.21875 7.46875 41.1875 3.015625 
Q 35.15625 -1.421875 24.609375 -1.421875 
Q 20.21875 -1.421875 15.453125 -0.5625 
Q 10.6875 0.296875 5.421875 2 
L 5.421875 11.28125 
Q 10.40625 8.6875 15.234375 7.390625 
Q 20.0625 6.109375 24.8125 6.109375 
Q 31.15625 6.109375 34.5625 8.28125 
Q 37.984375 10.453125 37.984375 14.40625 
Q 37.984375 18.0625 35.515625 20.015625 
Q 33.0625 21.96875 24.703125 23.78125 
L 21.578125 24.515625 
Q 13.234375 26.265625 9.515625 29.90625 
Q 5.8125 33.546875 5.8125 39.890625 
Q 5.8125 47.609375 11.28125 51.796875 
Q 16.75 56 26.8125 56 
Q 31.78125 56 36.171875 55.265625 
Q 40.578125 54.546875 44.28125 53.078125 
z
" id="DejaVuSans-73"/>
      <path d="M 18.3125 70.21875 
L 18.3125 54.6875 
L 36.8125 54.6875 
L 36.8125 47.703125 
L 18.3125 47.703125 
L 18.3125 18.015625 
Q 18.3125 11.328125 20.140625 9.421875 
Q 21.96875 7.515625 27.59375 7.515625 
L 36.8125 7.515625 
L 36.8125 0 
L 27.59375 0 
Q 17.1875 0 13.234375 3.875 
Q 9.28125 7.765625 9.28125 18.015625 
L 9.28125 47.703125 
L 2.6875 47.703125 
L 2.6875 54.6875 
L 9.28125 54.6875 
L 9.28125 70.21875 
z
" id="DejaVuSans-74"/>
     </defs>
     <g transform="translate(94.6 72.748563)scale(0.1 -0.1)">
      <use xlink:href="#DejaVuSans-31"/>
      <use x="63.623047" xlink:href="#DejaVuSans-73"/>
      <use x="115.722656" xlink:href="#DejaVuSans-74"/>
     </g>
    </g>
    <g id="line2d_23">
     <path d="M 66.6 83.926688 
L 86.6 83.926688 
" style="fill:none;stroke:#2ca02c;stroke-linecap:square;stroke-width:1.5;"/>
    </g>
    <g id="line2d_24"/>
    <g id="text_17">
     <!-- 2nd -->
     <defs>
      <path d="M 54.890625 33.015625 
L 54.890625 0 
L 45.90625 0 
L 45.90625 32.71875 
Q 45.90625 40.484375 42.875 44.328125 
Q 39.84375 48.1875 33.796875 48.1875 
Q 26.515625 48.1875 22.3125 43.546875 
Q 18.109375 38.921875 18.109375 30.90625 
L 18.109375 0 
L 9.078125 0 
L 9.078125 54.6875 
L 18.109375 54.6875 
L 18.109375 46.1875 
Q 21.34375 51.125 25.703125 53.5625 
Q 30.078125 56 35.796875 56 
Q 45.21875 56 50.046875 50.171875 
Q 54.890625 44.34375 54.890625 33.015625 
z
" id="DejaVuSans-6e"/>
      <path d="M 45.40625 46.390625 
L 45.40625 75.984375 
L 54.390625 75.984375 
L 54.390625 0 
L 45.40625 0 
L 45.40625 8.203125 
Q 42.578125 3.328125 38.25 0.953125 
Q 33.9375 -1.421875 27.875 -1.421875 
Q 17.96875 -1.421875 11.734375 6.484375 
Q 5.515625 14.40625 5.515625 27.296875 
Q 5.515625 40.1875 11.734375 48.09375 
Q 17.96875 56 27.875 56 
Q 33.9375 56 38.25 53.625 
Q 42.578125 51.265625 45.40625 46.390625 
z
M 14.796875 27.296875 
Q 14.796875 17.390625 18.875 11.75 
Q 22.953125 6.109375 30.078125 6.109375 
Q 37.203125 6.109375 41.296875 11.75 
Q 45.40625 17.390625 45.40625 27.296875 
Q 45.40625 37.203125 41.296875 42.84375 
Q 37.203125 48.484375 30.078125 48.484375 
Q 22.953125 48.484375 18.875 42.84375 
Q 14.796875 37.203125 14.796875 27.296875 
z
" id="DejaVuSans-64"/>
     </defs>
     <g transform="translate(94.6 87.426688)scale(0.1 -0.1)">
      <use xlink:href="#DejaVuSans-32"/>
      <use x="63.623047" xlink:href="#DejaVuSans-6e"/>
      <use x="127.001953" xlink:href="#DejaVuSans-64"/>
     </g>
    </g>
    <g id="line2d_25">
     <path d="M 66.6 98.604813 
L 86.6 98.604813 
" style="fill:none;stroke:#d62728;stroke-linecap:square;stroke-width:1.5;"/>
    </g>
    <g id="line2d_26"/>
    <g id="text_18">
     <!-- 3rd -->
     <defs>
      <path d="M 41.109375 46.296875 
Q 39.59375 47.171875 37.8125 47.578125 
Q 36.03125 48 33.890625 48 
Q 26.265625 48 22.1875 43.046875 
Q 18.109375 38.09375 18.109375 28.8125 
L 18.109375 0 
L 9.078125 0 
L 9.078125 54.6875 
L 18.109375 54.6875 
L 18.109375 46.1875 
Q 20.953125 51.171875 25.484375 53.578125 
Q 30.03125 56 36.53125 56 
Q 37.453125 56 38.578125 55.875 
Q 39.703125 55.765625 41.0625 55.515625 
z
" id="DejaVuSans-72"/>
     </defs>
     <g transform="translate(94.6 102.104813)scale(0.1 -0.1)">
      <use xlink:href="#DejaVuSans-33"/>
      <use x="63.623047" xlink:href="#DejaVuSans-72"/>
      <use x="104.720703" xlink:href="#DejaVuSans-64"/>
     </g>
    </g>
   </g>
  </g>
 </g>
 <defs>
  <clipPath id="pe960204845">
   <rect height="266.112" width="357.12" x="57.6" y="41.472"/>
  </clipPath>
 </defs>
</svg>
