<?xml version="1.0" encoding="utf-8" standalone="no"?>
<!DOCTYPE svg PUBLIC "-//W3C//DTD SVG 1.1//EN"
  "http://www.w3.org/Graphics/SVG/1.1/DTD/svg11.dtd">
<!-- Created with matplotlib (http://matplotlib.org/) -->
<svg height="606.24pt" version="1.1" viewBox="0 0 1110.96 606.24" width="1110.96pt" xmlns="http://www.w3.org/2000/svg" xmlns:xlink="http://www.w3.org/1999/xlink">
 <defs>
  <style type="text/css">
*{stroke-linecap:butt;stroke-linejoin:round;}
  </style>
 </defs>
 <g id="figure_1">
  <g id="patch_1">
   <path d="M 0 606.24 
L 1110.96 606.24 
L 1110.96 0 
L 0 0 
z
" style="fill:#ffffff;"/>
  </g>
  <g id="axes_1">
   <g id="patch_2">
    <path d="M 138.87 539.5536 
L 999.864 539.5536 
L 999.864 72.7488 
L 138.87 72.7488 
z
" style="fill:#ffffff;"/>
   </g>
   <g id="matplotlib.axis_1">
    <g id="xtick_1">
     <g id="line2d_1">
      <defs>
       <path d="M 0 0 
L 0 3.5 
" id="m4a41a63bf6" style="stroke:#000000;stroke-width:0.8;"/>
      </defs>
      <g>
       <use style="stroke:#000000;stroke-width:0.8;" x="178.006091" xlink:href="#m4a41a63bf6" y="539.5536"/>
      </g>
     </g>
     <g id="text_1">
      <!-- 0 -->
      <defs>
       <path d="M 31.78125 66.40625 
Q 24.171875 66.40625 20.328125 58.90625 
Q 16.5 51.421875 16.5 36.375 
Q 16.5 21.390625 20.328125 13.890625 
Q 24.171875 6.390625 31.78125 6.390625 
Q 39.453125 6.390625 43.28125 13.890625 
Q 47.125 21.390625 47.125 36.375 
Q 47.125 51.421875 43.28125 58.90625 
Q 39.453125 66.40625 31.78125 66.40625 
z
M 31.78125 74.21875 
Q 44.046875 74.21875 50.515625 64.515625 
Q 56.984375 54.828125 56.984375 36.375 
Q 56.984375 17.96875 50.515625 8.265625 
Q 44.046875 -1.421875 31.78125 -1.421875 
Q 19.53125 -1.421875 13.0625 8.265625 
Q 6.59375 17.96875 6.59375 36.375 
Q 6.59375 54.828125 13.0625 64.515625 
Q 19.53125 74.21875 31.78125 74.21875 
z
" id="DejaVuSans-30"/>
      </defs>
      <g transform="translate(174.824841 554.152038)scale(0.1 -0.1)">
       <use xlink:href="#DejaVuSans-30"/>
      </g>
     </g>
    </g>
    <g id="xtick_2">
     <g id="line2d_2">
      <g>
       <use style="stroke:#000000;stroke-width:0.8;" x="302.247649" xlink:href="#m4a41a63bf6" y="539.5536"/>
      </g>
     </g>
     <g id="text_2">
      <!-- 50 -->
      <defs>
       <path d="M 10.796875 72.90625 
L 49.515625 72.90625 
L 49.515625 64.59375 
L 19.828125 64.59375 
L 19.828125 46.734375 
Q 21.96875 47.46875 24.109375 47.828125 
Q 26.265625 48.1875 28.421875 48.1875 
Q 40.625 48.1875 47.75 41.5 
Q 54.890625 34.8125 54.890625 23.390625 
Q 54.890625 11.625 47.5625 5.09375 
Q 40.234375 -1.421875 26.90625 -1.421875 
Q 22.3125 -1.421875 17.546875 -0.640625 
Q 12.796875 0.140625 7.71875 1.703125 
L 7.71875 11.625 
Q 12.109375 9.234375 16.796875 8.0625 
Q 21.484375 6.890625 26.703125 6.890625 
Q 35.15625 6.890625 40.078125 11.328125 
Q 45.015625 15.765625 45.015625 23.390625 
Q 45.015625 31 40.078125 35.4375 
Q 35.15625 39.890625 26.703125 39.890625 
Q 22.75 39.890625 18.8125 39.015625 
Q 14.890625 38.140625 10.796875 36.28125 
z
" id="DejaVuSans-35"/>
      </defs>
      <g transform="translate(295.885149 554.152038)scale(0.1 -0.1)">
       <use xlink:href="#DejaVuSans-35"/>
       <use x="63.623047" xlink:href="#DejaVuSans-30"/>
      </g>
     </g>
    </g>
    <g id="xtick_3">
     <g id="line2d_3">
      <g>
       <use style="stroke:#000000;stroke-width:0.8;" x="426.489208" xlink:href="#m4a41a63bf6" y="539.5536"/>
      </g>
     </g>
     <g id="text_3">
      <!-- 100 -->
      <defs>
       <path d="M 12.40625 8.296875 
L 28.515625 8.296875 
L 28.515625 63.921875 
L 10.984375 60.40625 
L 10.984375 69.390625 
L 28.421875 72.90625 
L 38.28125 72.90625 
L 38.28125 8.296875 
L 54.390625 8.296875 
L 54.390625 0 
L 12.40625 0 
z
" id="DejaVuSans-31"/>
      </defs>
      <g transform="translate(416.945458 554.152038)scale(0.1 -0.1)">
       <use xlink:href="#DejaVuSans-31"/>
       <use x="63.623047" xlink:href="#DejaVuSans-30"/>
       <use x="127.246094" xlink:href="#DejaVuSans-30"/>
      </g>
     </g>
    </g>
    <g id="xtick_4">
     <g id="line2d_4">
      <g>
       <use style="stroke:#000000;stroke-width:0.8;" x="550.730766" xlink:href="#m4a41a63bf6" y="539.5536"/>
      </g>
     </g>
     <g id="text_4">
      <!-- 150 -->
      <g transform="translate(541.187016 554.152038)scale(0.1 -0.1)">
       <use xlink:href="#DejaVuSans-31"/>
       <use x="63.623047" xlink:href="#DejaVuSans-35"/>
       <use x="127.246094" xlink:href="#DejaVuSans-30"/>
      </g>
     </g>
    </g>
    <g id="xtick_5">
     <g id="line2d_5">
      <g>
       <use style="stroke:#000000;stroke-width:0.8;" x="674.972325" xlink:href="#m4a41a63bf6" y="539.5536"/>
      </g>
     </g>
     <g id="text_5">
      <!-- 200 -->
      <defs>
       <path d="M 19.1875 8.296875 
L 53.609375 8.296875 
L 53.609375 0 
L 7.328125 0 
L 7.328125 8.296875 
Q 12.9375 14.109375 22.625 23.890625 
Q 32.328125 33.6875 34.8125 36.53125 
Q 39.546875 41.84375 41.421875 45.53125 
Q 43.3125 49.21875 43.3125 52.78125 
Q 43.3125 58.59375 39.234375 62.25 
Q 35.15625 65.921875 28.609375 65.921875 
Q 23.96875 65.921875 18.8125 64.3125 
Q 13.671875 62.703125 7.8125 59.421875 
L 7.8125 69.390625 
Q 13.765625 71.78125 18.9375 73 
Q 24.125 74.21875 28.421875 74.21875 
Q 39.75 74.21875 46.484375 68.546875 
Q 53.21875 62.890625 53.21875 53.421875 
Q 53.21875 48.921875 51.53125 44.890625 
Q 49.859375 40.875 45.40625 35.40625 
Q 44.1875 33.984375 37.640625 27.21875 
Q 31.109375 20.453125 19.1875 8.296875 
z
" id="DejaVuSans-32"/>
      </defs>
      <g transform="translate(665.428575 554.152038)scale(0.1 -0.1)">
       <use xlink:href="#DejaVuSans-32"/>
       <use x="63.623047" xlink:href="#DejaVuSans-30"/>
       <use x="127.246094" xlink:href="#DejaVuSans-30"/>
      </g>
     </g>
    </g>
    <g id="xtick_6">
     <g id="line2d_6">
      <g>
       <use style="stroke:#000000;stroke-width:0.8;" x="799.213883" xlink:href="#m4a41a63bf6" y="539.5536"/>
      </g>
     </g>
     <g id="text_6">
      <!-- 250 -->
      <g transform="translate(789.670133 554.152038)scale(0.1 -0.1)">
       <use xlink:href="#DejaVuSans-32"/>
       <use x="63.623047" xlink:href="#DejaVuSans-35"/>
       <use x="127.246094" xlink:href="#DejaVuSans-30"/>
      </g>
     </g>
    </g>
    <g id="xtick_7">
     <g id="line2d_7">
      <g>
       <use style="stroke:#000000;stroke-width:0.8;" x="923.455442" xlink:href="#m4a41a63bf6" y="539.5536"/>
      </g>
     </g>
     <g id="text_7">
      <!-- 300 -->
      <defs>
       <path d="M 40.578125 39.3125 
Q 47.65625 37.796875 51.625 33 
Q 55.609375 28.21875 55.609375 21.1875 
Q 55.609375 10.40625 48.1875 4.484375 
Q 40.765625 -1.421875 27.09375 -1.421875 
Q 22.515625 -1.421875 17.65625 -0.515625 
Q 12.796875 0.390625 7.625 2.203125 
L 7.625 11.71875 
Q 11.71875 9.328125 16.59375 8.109375 
Q 21.484375 6.890625 26.8125 6.890625 
Q 36.078125 6.890625 40.9375 10.546875 
Q 45.796875 14.203125 45.796875 21.1875 
Q 45.796875 27.640625 41.28125 31.265625 
Q 36.765625 34.90625 28.71875 34.90625 
L 20.21875 34.90625 
L 20.21875 43.015625 
L 29.109375 43.015625 
Q 36.375 43.015625 40.234375 45.921875 
Q 44.09375 48.828125 44.09375 54.296875 
Q 44.09375 59.90625 40.109375 62.90625 
Q 36.140625 65.921875 28.71875 65.921875 
Q 24.65625 65.921875 20.015625 65.03125 
Q 15.375 64.15625 9.8125 62.3125 
L 9.8125 71.09375 
Q 15.4375 72.65625 20.34375 73.4375 
Q 25.25 74.21875 29.59375 74.21875 
Q 40.828125 74.21875 47.359375 69.109375 
Q 53.90625 64.015625 53.90625 55.328125 
Q 53.90625 49.265625 50.4375 45.09375 
Q 46.96875 40.921875 40.578125 39.3125 
z
" id="DejaVuSans-33"/>
      </defs>
      <g transform="translate(913.911692 554.152038)scale(0.1 -0.1)">
       <use xlink:href="#DejaVuSans-33"/>
       <use x="63.623047" xlink:href="#DejaVuSans-30"/>
       <use x="127.246094" xlink:href="#DejaVuSans-30"/>
      </g>
     </g>
    </g>
   </g>
   <g id="matplotlib.axis_2">
    <g id="ytick_1">
     <g id="line2d_8">
      <defs>
       <path d="M 0 0 
L -3.5 0 
" id="me7be73214c" style="stroke:#000000;stroke-width:0.8;"/>
      </defs>
      <g>
       <use style="stroke:#000000;stroke-width:0.8;" x="138.87" xlink:href="#me7be73214c" y="480.998727"/>
      </g>
     </g>
     <g id="text_8">
      <!-- 60 -->
      <defs>
       <path d="M 33.015625 40.375 
Q 26.375 40.375 22.484375 35.828125 
Q 18.609375 31.296875 18.609375 23.390625 
Q 18.609375 15.53125 22.484375 10.953125 
Q 26.375 6.390625 33.015625 6.390625 
Q 39.65625 6.390625 43.53125 10.953125 
Q 47.40625 15.53125 47.40625 23.390625 
Q 47.40625 31.296875 43.53125 35.828125 
Q 39.65625 40.375 33.015625 40.375 
z
M 52.59375 71.296875 
L 52.59375 62.3125 
Q 48.875 64.0625 45.09375 64.984375 
Q 41.3125 65.921875 37.59375 65.921875 
Q 27.828125 65.921875 22.671875 59.328125 
Q 17.53125 52.734375 16.796875 39.40625 
Q 19.671875 43.65625 24.015625 45.921875 
Q 28.375 48.1875 33.59375 48.1875 
Q 44.578125 48.1875 50.953125 41.515625 
Q 57.328125 34.859375 57.328125 23.390625 
Q 57.328125 12.15625 50.6875 5.359375 
Q 44.046875 -1.421875 33.015625 -1.421875 
Q 20.359375 -1.421875 13.671875 8.265625 
Q 6.984375 17.96875 6.984375 36.375 
Q 6.984375 53.65625 15.1875 63.9375 
Q 23.390625 74.21875 37.203125 74.21875 
Q 40.921875 74.21875 44.703125 73.484375 
Q 48.484375 72.75 52.59375 71.296875 
z
" id="DejaVuSans-36"/>
      </defs>
      <g transform="translate(119.145 484.797945)scale(0.1 -0.1)">
       <use xlink:href="#DejaVuSans-36"/>
       <use x="63.623047" xlink:href="#DejaVuSans-30"/>
      </g>
     </g>
    </g>
    <g id="ytick_2">
     <g id="line2d_9">
      <g>
       <use style="stroke:#000000;stroke-width:0.8;" x="138.87" xlink:href="#me7be73214c" y="413.770516"/>
      </g>
     </g>
     <g id="text_9">
      <!-- 80 -->
      <defs>
       <path d="M 31.78125 34.625 
Q 24.75 34.625 20.71875 30.859375 
Q 16.703125 27.09375 16.703125 20.515625 
Q 16.703125 13.921875 20.71875 10.15625 
Q 24.75 6.390625 31.78125 6.390625 
Q 38.8125 6.390625 42.859375 10.171875 
Q 46.921875 13.96875 46.921875 20.515625 
Q 46.921875 27.09375 42.890625 30.859375 
Q 38.875 34.625 31.78125 34.625 
z
M 21.921875 38.8125 
Q 15.578125 40.375 12.03125 44.71875 
Q 8.5 49.078125 8.5 55.328125 
Q 8.5 64.0625 14.71875 69.140625 
Q 20.953125 74.21875 31.78125 74.21875 
Q 42.671875 74.21875 48.875 69.140625 
Q 55.078125 64.0625 55.078125 55.328125 
Q 55.078125 49.078125 51.53125 44.71875 
Q 48 40.375 41.703125 38.8125 
Q 48.828125 37.15625 52.796875 32.3125 
Q 56.78125 27.484375 56.78125 20.515625 
Q 56.78125 9.90625 50.3125 4.234375 
Q 43.84375 -1.421875 31.78125 -1.421875 
Q 19.734375 -1.421875 13.25 4.234375 
Q 6.78125 9.90625 6.78125 20.515625 
Q 6.78125 27.484375 10.78125 32.3125 
Q 14.796875 37.15625 21.921875 38.8125 
z
M 18.3125 54.390625 
Q 18.3125 48.734375 21.84375 45.5625 
Q 25.390625 42.390625 31.78125 42.390625 
Q 38.140625 42.390625 41.71875 45.5625 
Q 45.3125 48.734375 45.3125 54.390625 
Q 45.3125 60.0625 41.71875 63.234375 
Q 38.140625 66.40625 31.78125 66.40625 
Q 25.390625 66.40625 21.84375 63.234375 
Q 18.3125 60.0625 18.3125 54.390625 
z
" id="DejaVuSans-38"/>
      </defs>
      <g transform="translate(119.145 417.569734)scale(0.1 -0.1)">
       <use xlink:href="#DejaVuSans-38"/>
       <use x="63.623047" xlink:href="#DejaVuSans-30"/>
      </g>
     </g>
    </g>
    <g id="ytick_3">
     <g id="line2d_10">
      <g>
       <use style="stroke:#000000;stroke-width:0.8;" x="138.87" xlink:href="#me7be73214c" y="346.542305"/>
      </g>
     </g>
     <g id="text_10">
      <!-- 100 -->
      <g transform="translate(112.7825 350.341523)scale(0.1 -0.1)">
       <use xlink:href="#DejaVuSans-31"/>
       <use x="63.623047" xlink:href="#DejaVuSans-30"/>
       <use x="127.246094" xlink:href="#DejaVuSans-30"/>
      </g>
     </g>
    </g>
    <g id="ytick_4">
     <g id="line2d_11">
      <g>
       <use style="stroke:#000000;stroke-width:0.8;" x="138.87" xlink:href="#me7be73214c" y="279.314094"/>
      </g>
     </g>
     <g id="text_11">
      <!-- 120 -->
      <g transform="translate(112.7825 283.113312)scale(0.1 -0.1)">
       <use xlink:href="#DejaVuSans-31"/>
       <use x="63.623047" xlink:href="#DejaVuSans-32"/>
       <use x="127.246094" xlink:href="#DejaVuSans-30"/>
      </g>
     </g>
    </g>
    <g id="ytick_5">
     <g id="line2d_12">
      <g>
       <use style="stroke:#000000;stroke-width:0.8;" x="138.87" xlink:href="#me7be73214c" y="212.085882"/>
      </g>
     </g>
     <g id="text_12">
      <!-- 140 -->
      <defs>
       <path d="M 37.796875 64.3125 
L 12.890625 25.390625 
L 37.796875 25.390625 
z
M 35.203125 72.90625 
L 47.609375 72.90625 
L 47.609375 25.390625 
L 58.015625 25.390625 
L 58.015625 17.1875 
L 47.609375 17.1875 
L 47.609375 0 
L 37.796875 0 
L 37.796875 17.1875 
L 4.890625 17.1875 
L 4.890625 26.703125 
z
" id="DejaVuSans-34"/>
      </defs>
      <g transform="translate(112.7825 215.885101)scale(0.1 -0.1)">
       <use xlink:href="#DejaVuSans-31"/>
       <use x="63.623047" xlink:href="#DejaVuSans-34"/>
       <use x="127.246094" xlink:href="#DejaVuSans-30"/>
      </g>
     </g>
    </g>
    <g id="ytick_6">
     <g id="line2d_13">
      <g>
       <use style="stroke:#000000;stroke-width:0.8;" x="138.87" xlink:href="#me7be73214c" y="144.857671"/>
      </g>
     </g>
     <g id="text_13">
      <!-- 160 -->
      <g transform="translate(112.7825 148.65689)scale(0.1 -0.1)">
       <use xlink:href="#DejaVuSans-31"/>
       <use x="63.623047" xlink:href="#DejaVuSans-36"/>
       <use x="127.246094" xlink:href="#DejaVuSans-30"/>
      </g>
     </g>
    </g>
    <g id="ytick_7">
     <g id="line2d_14">
      <g>
       <use style="stroke:#000000;stroke-width:0.8;" x="138.87" xlink:href="#me7be73214c" y="77.62946"/>
      </g>
     </g>
     <g id="text_14">
      <!-- 180 -->
      <g transform="translate(112.7825 81.428679)scale(0.1 -0.1)">
       <use xlink:href="#DejaVuSans-31"/>
       <use x="63.623047" xlink:href="#DejaVuSans-38"/>
       <use x="127.246094" xlink:href="#DejaVuSans-30"/>
      </g>
     </g>
    </g>
   </g>
   <g id="line2d_15">
    <path clip-path="url(#p48db86fac3)" d="M 178.006091 518.3352 
L 180.490922 516.055499 
L 182.975753 513.594771 
L 185.460584 510.970233 
L 187.945416 507.048552 
L 190.430247 493.493878 
L 192.915078 481.077331 
L 195.399909 469.733672 
L 197.88474 459.40035 
L 200.369571 450.017422 
L 202.854403 441.527472 
L 205.339234 433.875535 
L 207.824065 427.009015 
L 210.308896 420.877613 
L 212.793727 415.433256 
L 215.278558 410.630019 
L 217.76339 406.424063 
L 220.248221 402.773559 
L 222.733052 399.638627 
L 225.217883 396.981269 
L 227.702714 394.765305 
L 230.187545 392.956314 
L 232.672377 391.52157 
L 235.157208 390.429983 
L 237.642039 389.652047 
L 240.12687 389.159779 
L 242.611701 388.926664 
L 287.338662 388.911038 
L 292.308325 385.434201 
L 297.277987 382.273215 
L 302.247649 379.420666 
L 307.217312 376.86743 
L 312.186974 374.602903 
L 317.156636 372.615209 
L 322.126299 370.891403 
L 327.095961 369.41765 
L 332.065623 368.179401 
L 337.035286 367.161547 
L 342.004948 366.348565 
L 346.97461 365.724654 
L 351.944273 365.273856 
L 359.398766 364.887257 
L 366.85326 364.799391 
L 473.701 364.755687 
L 481.155494 361.716743 
L 488.609987 358.884588 
L 496.064481 356.26092 
L 503.518974 353.842546 
L 510.973468 351.621772 
L 518.427961 349.586823 
L 528.367286 347.135518 
L 538.30661 344.94171 
L 545.761104 343.433607 
L 548.245935 342.576637 
L 558.18526 336.836225 
L 568.124584 330.804465 
L 580.54874 322.960626 
L 597.942558 311.657175 
L 622.79087 295.518022 
L 635.215026 287.718735 
L 645.154351 281.704741 
L 655.093675 275.939349 
L 665.033 270.459299 
L 674.972325 265.293515 
L 682.426818 261.638231 
L 689.881312 258.17728 
L 697.335805 254.913706 
L 704.790299 251.847901 
L 712.244792 248.977639 
L 719.699286 246.298125 
L 727.153779 243.802066 
L 737.093104 240.74226 
L 747.032429 237.961788 
L 756.971753 235.424624 
L 769.395909 232.530613 
L 784.304896 229.339098 
L 789.274558 228.314494 
L 791.75939 226.777991 
L 841.456013 184.135885 
L 853.880169 173.866564 
L 866.304325 163.904333 
L 876.243649 156.19168 
L 886.182974 148.72945 
L 896.122299 141.530402 
L 906.061623 134.599936 
L 916.000948 127.935859 
L 925.940273 121.528284 
L 935.879597 115.359638 
L 948.303753 107.945881 
L 958.243078 102.212003 
L 958.243078 102.212003 
" style="fill:none;stroke:#1f77b4;stroke-linecap:square;stroke-width:1.5;"/>
   </g>
   <g id="line2d_16">
    <path clip-path="url(#p48db86fac3)" d="M 182.975753 508.310623 
L 185.460584 506.217602 
L 187.945416 503.916096 
L 190.430247 500.601103 
L 192.915078 483.357641 
L 197.88474 459.547141 
L 200.369571 448.98998 
L 202.854403 440.083545 
L 205.339234 432.58428 
L 207.824065 426.125607 
L 210.308896 420.43625 
L 212.793727 415.351203 
L 215.278558 410.781735 
L 217.76339 406.685631 
L 220.248221 403.044069 
L 222.733052 399.846123 
L 225.217883 397.080868 
L 227.702714 394.733123 
L 230.187545 392.783242 
L 232.672377 391.207888 
L 235.157208 389.981314 
L 237.642039 389.077104 
L 240.12687 388.468638 
L 242.611701 388.130271 
L 245.096532 388.037178 
L 247.581364 388.16438 
L 289.823494 388.140068 
L 292.308325 385.390867 
L 297.277987 382.173533 
L 302.247649 379.286616 
L 307.217312 376.719294 
L 312.186974 374.455358 
L 317.156636 372.476395 
L 322.126299 370.763325 
L 327.095961 369.29794 
L 332.065623 368.062954 
L 337.035286 367.042006 
L 342.004948 366.219656 
L 346.97461 365.580569 
L 351.944273 365.109718 
L 359.398766 364.686207 
L 366.85326 364.55721 
L 391.701571 364.569418 
L 476.185831 364.508843 
L 478.670662 363.090286 
L 488.609987 359.374762 
L 498.549312 355.953033 
L 508.488636 352.818483 
L 518.427961 349.964905 
L 528.367286 347.378349 
L 538.30661 345.032296 
L 548.245935 342.886945 
L 550.730766 341.820399 
L 553.215597 340.091275 
L 560.670091 335.400144 
L 573.094247 327.269486 
L 597.942558 310.926155 
L 615.336377 299.804511 
L 632.730195 288.964762 
L 645.154351 281.453546 
L 655.093675 275.648219 
L 665.033 270.078831 
L 674.972325 264.791596 
L 684.911649 259.823185 
L 692.366143 256.321237 
L 699.820636 253.018196 
L 707.27513 249.91601 
L 714.729623 247.012885 
L 722.184117 244.304256 
L 729.63861 241.782275 
L 739.577935 238.69204 
L 749.51726 235.884778 
L 759.456584 233.322841 
L 771.88074 230.399148 
L 786.789727 227.171043 
L 791.75939 226.133425 
L 794.244221 224.466979 
L 801.698714 217.890645 
L 826.547026 195.927969 
L 841.456013 182.881628 
L 851.395338 174.436658 
L 861.334662 166.287279 
L 871.273987 158.465599 
L 881.213312 150.956998 
L 891.152636 143.71701 
L 903.576792 134.968807 
L 916.000948 126.490653 
L 928.425104 118.254591 
L 940.84926 110.259239 
L 953.273416 102.506391 
L 955.758247 100.984073 
L 955.758247 100.984073 
" style="fill:none;stroke:#ff7f0e;stroke-linecap:square;stroke-width:1.5;"/>
   </g>
   <g id="line2d_17">
    <path clip-path="url(#p48db86fac3)" d="M 185.460584 502.636089 
L 190.430247 498.663738 
L 192.915078 495.756702 
L 195.399909 478.395513 
L 197.88474 464.222295 
L 200.369571 451.195649 
L 202.854403 440.669135 
L 205.339234 432.218523 
L 207.824065 425.271124 
L 210.308896 419.405812 
L 212.793727 414.333281 
L 215.278558 409.868754 
L 217.76339 405.904109 
L 220.248221 402.379644 
L 222.733052 399.263149 
L 225.217883 396.535029 
L 227.702714 394.179897 
L 230.187545 392.182316 
L 232.672377 390.525512 
L 235.157208 389.190868 
L 237.642039 388.158276 
L 240.12687 387.406965 
L 242.611701 386.915904 
L 245.096532 386.663911 
L 247.581364 386.630418 
L 250.066195 386.793626 
L 292.308325 386.768186 
L 294.793156 383.898657 
L 299.762818 380.972605 
L 304.732481 378.319626 
L 309.702143 375.932335 
L 314.671805 373.801448 
L 319.641468 371.916656 
L 324.61113 370.267443 
L 329.580792 368.84345 
L 334.550455 367.634109 
L 339.520117 366.628343 
L 344.489779 365.814764 
L 349.459442 365.181012 
L 354.429104 364.71411 
L 361.883597 364.296498 
L 369.338091 364.175092 
L 389.21674 364.190172 
L 478.670662 364.12457 
L 481.155494 362.589942 
L 491.094818 358.787121 
L 501.034143 355.247525 
L 510.973468 351.98962 
L 520.912792 349.021817 
L 530.852117 346.33673 
L 540.791442 343.908817 
L 550.730766 341.696582 
L 553.215597 340.588695 
L 555.700429 338.801202 
L 565.639753 332.401874 
L 597.942558 311.292681 
L 610.366714 303.527882 
L 627.760532 292.958181 
L 665.033 270.583689 
L 674.972325 264.963575 
L 682.426818 261.009598 
L 689.881312 257.31377 
L 697.335805 253.880809 
L 704.790299 250.699225 
L 712.244792 247.749425 
L 719.699286 245.009559 
L 727.153779 242.458958 
L 737.093104 239.320253 
L 747.032429 236.444876 
L 756.971753 233.795796 
L 769.395909 230.744183 
L 784.304896 227.352408 
L 794.244221 225.177873 
L 796.729052 223.422385 
L 821.577364 199.827423 
L 829.031857 193.080905 
L 836.486351 186.665728 
L 846.425675 178.501731 
L 863.819494 164.307137 
L 876.243649 154.079598 
L 883.698143 148.221749 
L 891.152636 142.65749 
L 901.091961 135.583582 
L 913.516117 127.036389 
L 928.425104 117.019452 
L 943.334091 107.267535 
L 958.243078 97.790538 
L 958.243078 97.790538 
" style="fill:none;stroke:#2ca02c;stroke-linecap:square;stroke-width:1.5;"/>
   </g>
   <g id="line2d_18">
    <path clip-path="url(#p48db86fac3)" d="M 187.945416 496.181046 
L 192.915078 491.863672 
L 195.399909 488.875045 
L 197.88474 468.154523 
L 200.369571 455.162397 
L 202.854403 443.868465 
L 205.339234 434.548419 
L 207.824065 426.817472 
L 210.308896 420.369058 
L 212.793727 414.921333 
L 215.278558 410.235639 
L 217.76339 406.141228 
L 220.248221 402.530286 
L 222.733052 399.339213 
L 225.217883 396.531131 
L 227.702714 394.082393 
L 230.187545 391.975305 
L 232.672377 390.193608 
L 235.157208 388.721042 
L 237.642039 387.540424 
L 240.12687 386.633906 
L 242.611701 385.983433 
L 245.096532 385.570489 
L 247.581364 385.376506 
L 250.066195 385.383071 
L 252.551026 385.570643 
L 294.793156 385.544381 
L 297.277987 382.594479 
L 302.247649 379.877541 
L 307.217312 377.404491 
L 312.186974 375.16656 
L 317.156636 373.155745 
L 322.126299 371.364918 
L 327.095961 369.787462 
L 332.065623 368.417221 
L 337.035286 367.247426 
L 342.004948 366.270639 
L 346.97461 365.478346 
L 351.944273 364.860238 
L 356.913935 364.405184 
L 364.368429 364.000395 
L 371.822922 363.888067 
L 389.21674 363.905455 
L 481.155494 363.836468 
L 483.640325 362.224544 
L 493.579649 358.407259 
L 503.518974 354.81191 
L 513.458299 351.474863 
L 523.397623 348.418224 
L 533.336948 345.643326 
L 543.276273 343.129244 
L 553.215597 340.836175 
L 555.700429 339.669047 
L 558.18526 337.790204 
L 568.124584 331.169196 
L 590.488065 316.152252 
L 600.42739 309.791136 
L 610.366714 303.696476 
L 622.79087 296.370267 
L 640.184688 286.152679 
L 650.124013 280.054377 
L 665.033 270.822193 
L 672.487494 266.477327 
L 679.941987 262.444158 
L 687.396481 258.728172 
L 694.850974 255.288953 
L 702.305468 252.073773 
L 712.244792 248.058402 
L 722.184117 244.293074 
L 732.123442 240.74876 
L 742.062766 237.420535 
L 752.002091 234.309476 
L 761.941416 231.410864 
L 774.365571 228.058789 
L 786.789727 224.94655 
L 796.729052 222.568184 
L 799.213883 220.677237 
L 804.183545 215.729394 
L 811.638039 208.575882 
L 819.092532 201.670977 
L 829.031857 192.812602 
L 838.971182 184.260075 
L 853.880169 171.771934 
L 878.728481 151.186475 
L 886.182974 145.407922 
L 893.637468 139.967685 
L 901.091961 134.798572 
L 916.000948 124.820513 
L 930.909935 114.772698 
L 945.818922 104.425395 
L 960.727909 93.9672 
L 960.727909 93.9672 
" style="fill:none;stroke:#d62728;stroke-linecap:square;stroke-width:1.5;"/>
   </g>
   <g id="patch_3">
    <path d="M 138.87 539.5536 
L 138.87 72.7488 
" style="fill:none;stroke:#000000;stroke-linecap:square;stroke-linejoin:miter;stroke-width:0.8;"/>
   </g>
   <g id="patch_4">
    <path d="M 999.864 539.5536 
L 999.864 72.7488 
" style="fill:none;stroke:#000000;stroke-linecap:square;stroke-linejoin:miter;stroke-width:0.8;"/>
   </g>
   <g id="patch_5">
    <path d="M 138.87 539.5536 
L 999.864 539.5536 
" style="fill:none;stroke:#000000;stroke-linecap:square;stroke-linejoin:miter;stroke-width:0.8;"/>
   </g>
   <g id="patch_6">
    <path d="M 138.87 72.7488 
L 999.864 72.7488 
" style="fill:none;stroke:#000000;stroke-linecap:square;stroke-linejoin:miter;stroke-width:0.8;"/>
   </g>
   <g id="legend_1">
    <g id="patch_7">
     <path d="M 145.87 139.4613 
L 225.52625 139.4613 
Q 227.52625 139.4613 227.52625 137.4613 
L 227.52625 79.7488 
Q 227.52625 77.7488 225.52625 77.7488 
L 145.87 77.7488 
Q 143.87 77.7488 143.87 79.7488 
L 143.87 137.4613 
Q 143.87 139.4613 145.87 139.4613 
z
" style="fill:#ffffff;opacity:0.8;stroke:#cccccc;stroke-linejoin:miter;"/>
    </g>
    <g id="line2d_19">
     <path d="M 147.87 85.847238 
L 167.87 85.847238 
" style="fill:none;stroke:#1f77b4;stroke-linecap:square;stroke-width:1.5;"/>
    </g>
    <g id="line2d_20"/>
    <g id="text_15">
     <!-- predicted -->
     <defs>
      <path d="M 18.109375 8.203125 
L 18.109375 -20.796875 
L 9.078125 -20.796875 
L 9.078125 54.6875 
L 18.109375 54.6875 
L 18.109375 46.390625 
Q 20.953125 51.265625 25.265625 53.625 
Q 29.59375 56 35.59375 56 
Q 45.5625 56 51.78125 48.09375 
Q 58.015625 40.1875 58.015625 27.296875 
Q 58.015625 14.40625 51.78125 6.484375 
Q 45.5625 -1.421875 35.59375 -1.421875 
Q 29.59375 -1.421875 25.265625 0.953125 
Q 20.953125 3.328125 18.109375 8.203125 
z
M 48.6875 27.296875 
Q 48.6875 37.203125 44.609375 42.84375 
Q 40.53125 48.484375 33.40625 48.484375 
Q 26.265625 48.484375 22.1875 42.84375 
Q 18.109375 37.203125 18.109375 27.296875 
Q 18.109375 17.390625 22.1875 11.75 
Q 26.265625 6.109375 33.40625 6.109375 
Q 40.53125 6.109375 44.609375 11.75 
Q 48.6875 17.390625 48.6875 27.296875 
z
" id="DejaVuSans-70"/>
      <path d="M 41.109375 46.296875 
Q 39.59375 47.171875 37.8125 47.578125 
Q 36.03125 48 33.890625 48 
Q 26.265625 48 22.1875 43.046875 
Q 18.109375 38.09375 18.109375 28.8125 
L 18.109375 0 
L 9.078125 0 
L 9.078125 54.6875 
L 18.109375 54.6875 
L 18.109375 46.1875 
Q 20.953125 51.171875 25.484375 53.578125 
Q 30.03125 56 36.53125 56 
Q 37.453125 56 38.578125 55.875 
Q 39.703125 55.765625 41.0625 55.515625 
z
" id="DejaVuSans-72"/>
      <path d="M 56.203125 29.59375 
L 56.203125 25.203125 
L 14.890625 25.203125 
Q 15.484375 15.921875 20.484375 11.0625 
Q 25.484375 6.203125 34.421875 6.203125 
Q 39.59375 6.203125 44.453125 7.46875 
Q 49.3125 8.734375 54.109375 11.28125 
L 54.109375 2.78125 
Q 49.265625 0.734375 44.1875 -0.34375 
Q 39.109375 -1.421875 33.890625 -1.421875 
Q 20.796875 -1.421875 13.15625 6.1875 
Q 5.515625 13.8125 5.515625 26.8125 
Q 5.515625 40.234375 12.765625 48.109375 
Q 20.015625 56 32.328125 56 
Q 43.359375 56 49.78125 48.890625 
Q 56.203125 41.796875 56.203125 29.59375 
z
M 47.21875 32.234375 
Q 47.125 39.59375 43.09375 43.984375 
Q 39.0625 48.390625 32.421875 48.390625 
Q 24.90625 48.390625 20.390625 44.140625 
Q 15.875 39.890625 15.1875 32.171875 
z
" id="DejaVuSans-65"/>
      <path d="M 45.40625 46.390625 
L 45.40625 75.984375 
L 54.390625 75.984375 
L 54.390625 0 
L 45.40625 0 
L 45.40625 8.203125 
Q 42.578125 3.328125 38.25 0.953125 
Q 33.9375 -1.421875 27.875 -1.421875 
Q 17.96875 -1.421875 11.734375 6.484375 
Q 5.515625 14.40625 5.515625 27.296875 
Q 5.515625 40.1875 11.734375 48.09375 
Q 17.96875 56 27.875 56 
Q 33.9375 56 38.25 53.625 
Q 42.578125 51.265625 45.40625 46.390625 
z
M 14.796875 27.296875 
Q 14.796875 17.390625 18.875 11.75 
Q 22.953125 6.109375 30.078125 6.109375 
Q 37.203125 6.109375 41.296875 11.75 
Q 45.40625 17.390625 45.40625 27.296875 
Q 45.40625 37.203125 41.296875 42.84375 
Q 37.203125 48.484375 30.078125 48.484375 
Q 22.953125 48.484375 18.875 42.84375 
Q 14.796875 37.203125 14.796875 27.296875 
z
" id="DejaVuSans-64"/>
      <path d="M 9.421875 54.6875 
L 18.40625 54.6875 
L 18.40625 0 
L 9.421875 0 
z
M 9.421875 75.984375 
L 18.40625 75.984375 
L 18.40625 64.59375 
L 9.421875 64.59375 
z
" id="DejaVuSans-69"/>
      <path d="M 48.78125 52.59375 
L 48.78125 44.1875 
Q 44.96875 46.296875 41.140625 47.34375 
Q 37.3125 48.390625 33.40625 48.390625 
Q 24.65625 48.390625 19.8125 42.84375 
Q 14.984375 37.3125 14.984375 27.296875 
Q 14.984375 17.28125 19.8125 11.734375 
Q 24.65625 6.203125 33.40625 6.203125 
Q 37.3125 6.203125 41.140625 7.25 
Q 44.96875 8.296875 48.78125 10.40625 
L 48.78125 2.09375 
Q 45.015625 0.34375 40.984375 -0.53125 
Q 36.96875 -1.421875 32.421875 -1.421875 
Q 20.0625 -1.421875 12.78125 6.34375 
Q 5.515625 14.109375 5.515625 27.296875 
Q 5.515625 40.671875 12.859375 48.328125 
Q 20.21875 56 33.015625 56 
Q 37.15625 56 41.109375 55.140625 
Q 45.0625 54.296875 48.78125 52.59375 
z
" id="DejaVuSans-63"/>
      <path d="M 18.3125 70.21875 
L 18.3125 54.6875 
L 36.8125 54.6875 
L 36.8125 47.703125 
L 18.3125 47.703125 
L 18.3125 18.015625 
Q 18.3125 11.328125 20.140625 9.421875 
Q 21.96875 7.515625 27.59375 7.515625 
L 36.8125 7.515625 
L 36.8125 0 
L 27.59375 0 
Q 17.1875 0 13.234375 3.875 
Q 9.28125 7.765625 9.28125 18.015625 
L 9.28125 47.703125 
L 2.6875 47.703125 
L 2.6875 54.6875 
L 9.28125 54.6875 
L 9.28125 70.21875 
z
" id="DejaVuSans-74"/>
     </defs>
     <g transform="translate(175.87 89.347238)scale(0.1 -0.1)">
      <use xlink:href="#DejaVuSans-70"/>
      <use x="63.476562" xlink:href="#DejaVuSans-72"/>
      <use x="104.558594" xlink:href="#DejaVuSans-65"/>
      <use x="166.082031" xlink:href="#DejaVuSans-64"/>
      <use x="229.558594" xlink:href="#DejaVuSans-69"/>
      <use x="257.341797" xlink:href="#DejaVuSans-63"/>
      <use x="312.322266" xlink:href="#DejaVuSans-74"/>
      <use x="351.53125" xlink:href="#DejaVuSans-65"/>
      <use x="413.054688" xlink:href="#DejaVuSans-64"/>
     </g>
    </g>
    <g id="line2d_21">
     <path d="M 147.87 100.525363 
L 167.87 100.525363 
" style="fill:none;stroke:#ff7f0e;stroke-linecap:square;stroke-width:1.5;"/>
    </g>
    <g id="line2d_22"/>
    <g id="text_16">
     <!-- 1st -->
     <defs>
      <path d="M 44.28125 53.078125 
L 44.28125 44.578125 
Q 40.484375 46.53125 36.375 47.5 
Q 32.28125 48.484375 27.875 48.484375 
Q 21.1875 48.484375 17.84375 46.4375 
Q 14.5 44.390625 14.5 40.28125 
Q 14.5 37.15625 16.890625 35.375 
Q 19.28125 33.59375 26.515625 31.984375 
L 29.59375 31.296875 
Q 39.15625 29.25 43.1875 25.515625 
Q 47.21875 21.78125 47.21875 15.09375 
Q 47.21875 7.46875 41.1875 3.015625 
Q 35.15625 -1.421875 24.609375 -1.421875 
Q 20.21875 -1.421875 15.453125 -0.5625 
Q 10.6875 0.296875 5.421875 2 
L 5.421875 11.28125 
Q 10.40625 8.6875 15.234375 7.390625 
Q 20.0625 6.109375 24.8125 6.109375 
Q 31.15625 6.109375 34.5625 8.28125 
Q 37.984375 10.453125 37.984375 14.40625 
Q 37.984375 18.0625 35.515625 20.015625 
Q 33.0625 21.96875 24.703125 23.78125 
L 21.578125 24.515625 
Q 13.234375 26.265625 9.515625 29.90625 
Q 5.8125 33.546875 5.8125 39.890625 
Q 5.8125 47.609375 11.28125 51.796875 
Q 16.75 56 26.8125 56 
Q 31.78125 56 36.171875 55.265625 
Q 40.578125 54.546875 44.28125 53.078125 
z
" id="DejaVuSans-73"/>
     </defs>
     <g transform="translate(175.87 104.025363)scale(0.1 -0.1)">
      <use xlink:href="#DejaVuSans-31"/>
      <use x="63.623047" xlink:href="#DejaVuSans-73"/>
      <use x="115.722656" xlink:href="#DejaVuSans-74"/>
     </g>
    </g>
    <g id="line2d_23">
     <path d="M 147.87 115.203487 
L 167.87 115.203487 
" style="fill:none;stroke:#2ca02c;stroke-linecap:square;stroke-width:1.5;"/>
    </g>
    <g id="line2d_24"/>
    <g id="text_17">
     <!-- 2nd -->
     <defs>
      <path d="M 54.890625 33.015625 
L 54.890625 0 
L 45.90625 0 
L 45.90625 32.71875 
Q 45.90625 40.484375 42.875 44.328125 
Q 39.84375 48.1875 33.796875 48.1875 
Q 26.515625 48.1875 22.3125 43.546875 
Q 18.109375 38.921875 18.109375 30.90625 
L 18.109375 0 
L 9.078125 0 
L 9.078125 54.6875 
L 18.109375 54.6875 
L 18.109375 46.1875 
Q 21.34375 51.125 25.703125 53.5625 
Q 30.078125 56 35.796875 56 
Q 45.21875 56 50.046875 50.171875 
Q 54.890625 44.34375 54.890625 33.015625 
z
" id="DejaVuSans-6e"/>
     </defs>
     <g transform="translate(175.87 118.703487)scale(0.1 -0.1)">
      <use xlink:href="#DejaVuSans-32"/>
      <use x="63.623047" xlink:href="#DejaVuSans-6e"/>
      <use x="127.001953" xlink:href="#DejaVuSans-64"/>
     </g>
    </g>
    <g id="line2d_25">
     <path d="M 147.87 129.881613 
L 167.87 129.881613 
" style="fill:none;stroke:#d62728;stroke-linecap:square;stroke-width:1.5;"/>
    </g>
    <g id="line2d_26"/>
    <g id="text_18">
     <!-- 3rd -->
     <g transform="translate(175.87 133.381613)scale(0.1 -0.1)">
      <use xlink:href="#DejaVuSans-33"/>
      <use x="63.623047" xlink:href="#DejaVuSans-72"/>
      <use x="104.720703" xlink:href="#DejaVuSans-64"/>
     </g>
    </g>
   </g>
  </g>
 </g>
 <defs>
  <clipPath id="p48db86fac3">
   <rect height="466.8048" width="860.994" x="138.87" y="72.7488"/>
  </clipPath>
 </defs>
</svg>
