<?xml version="1.0" encoding="UTF-8" standalone="no"?>
<!-- Created with Inkscape (http://www.inkscape.org/) -->

<svg
   xmlns:dc="http://purl.org/dc/elements/1.1/"
   xmlns:cc="http://creativecommons.org/ns#"
   xmlns:rdf="http://www.w3.org/1999/02/22-rdf-syntax-ns#"
   xmlns:svg="http://www.w3.org/2000/svg"
   xmlns="http://www.w3.org/2000/svg"
   xmlns:sodipodi="http://sodipodi.sourceforge.net/DTD/sodipodi-0.dtd"
   xmlns:inkscape="http://www.inkscape.org/namespaces/inkscape"
   version="1.1"
   id="svg2"
   xml:space="preserve"
   width="614.40002"
   height="460.79999"
   viewBox="0 0 614.40002 460.79999"
   sodipodi:docname="CNN_invovled_comprehensive_correction_with_CNN.svg"
   inkscape:version="0.92.3 (unknown)"><metadata
     id="metadata8"><rdf:RDF><cc:Work
         rdf:about=""><dc:format>image/svg+xml</dc:format><dc:type
           rdf:resource="http://purl.org/dc/dcmitype/StillImage" /><dc:title></dc:title></cc:Work></rdf:RDF></metadata><defs
     id="defs6"><clipPath
       clipPathUnits="userSpaceOnUse"
       id="clipPath126"><path
         d="M -1016,-351 H 1660 V 1068 H -1016 Z"
         id="path124"
         inkscape:connector-curvature="0" /></clipPath><clipPath
       clipPathUnits="userSpaceOnUse"
       id="clipPath138"><path
         d="M 57.6,38.016 H 414.72 V 304.128 H 57.6 Z"
         id="path136"
         inkscape:connector-curvature="0" /></clipPath><clipPath
       clipPathUnits="userSpaceOnUse"
       id="clipPath148"><path
         d="M 57.6,38.016 H 414.72 V 304.128 H 57.6 Z"
         id="path146"
         inkscape:connector-curvature="0" /></clipPath><clipPath
       clipPathUnits="userSpaceOnUse"
       id="clipPath158"><path
         d="M 57.6,38.016 H 414.72 V 304.128 H 57.6 Z"
         id="path156"
         inkscape:connector-curvature="0" /></clipPath><clipPath
       clipPathUnits="userSpaceOnUse"
       id="clipPath168"><path
         d="M 57.6,38.016 H 414.72 V 304.128 H 57.6 Z"
         id="path166"
         inkscape:connector-curvature="0" /></clipPath></defs><sodipodi:namedview
     pagecolor="#ffffff"
     bordercolor="#666666"
     borderopacity="1"
     objecttolerance="10"
     gridtolerance="10"
     guidetolerance="10"
     inkscape:pageopacity="0"
     inkscape:pageshadow="2"
     inkscape:window-width="706"
     inkscape:window-height="480"
     id="namedview4"
     showgrid="false"
     inkscape:zoom="0.51215279"
     inkscape:cx="307.20001"
     inkscape:cy="230.39999"
     inkscape:window-x="57"
     inkscape:window-y="24"
     inkscape:window-maximized="0"
     inkscape:current-layer="g10" /><g
     id="g10"
     inkscape:groupmode="layer"
     inkscape:label="CNN_invovled_comprehensive_all_c1_with_CNN"
     transform="matrix(1.3333333,0,0,-1.3333333,0,460.8)"><path
       d="M 0,0 H 460.8 V 345.6 H 0 Z"
       style="fill:#ffffff;fill-opacity:1;fill-rule:nonzero;stroke:none"
       id="path12"
       inkscape:connector-curvature="0" /><path
       d="M 57.6,38.016 H 414.72 V 304.128 H 57.6 Z"
       style="fill:#ffffff;fill-opacity:1;fill-rule:nonzero;stroke:none"
       id="path14"
       inkscape:connector-curvature="0" /><path
       d="m 73.832727,38.016 v -3.5"
       style="fill:#000000;fill-opacity:1;fill-rule:nonzero;stroke:#000000;stroke-width:0.80000001;stroke-linecap:butt;stroke-linejoin:round;stroke-miterlimit:10;stroke-dasharray:none;stroke-opacity:1"
       id="path16"
       inkscape:connector-curvature="0" /><text
       transform="matrix(1,0,0,-1,70.65304,23.42225)"
       style="font-variant:normal;font-weight:normal;font-size:10px;font-family:'DejaVu Sans';-inkscape-font-specification:DejaVuSans;writing-mode:lr-tb;fill:#000000;fill-opacity:1;fill-rule:nonzero;stroke:none"
       id="text20"><tspan
         x="0"
         y="0"
         id="tspan18">0</tspan></text>
<path
       d="m 125.52931,38.016 v -3.5"
       style="fill:#000000;fill-opacity:1;fill-rule:nonzero;stroke:#000000;stroke-width:0.80000001;stroke-linecap:butt;stroke-linejoin:round;stroke-miterlimit:10;stroke-dasharray:none;stroke-opacity:1"
       id="path22"
       inkscape:connector-curvature="0" /><text
       transform="matrix(1,0,0,-1,119.16994,23.42225)"
       style="font-variant:normal;font-weight:normal;font-size:10px;font-family:'DejaVu Sans';-inkscape-font-specification:DejaVuSans;writing-mode:lr-tb;fill:#000000;fill-opacity:1;fill-rule:nonzero;stroke:none"
       id="text26"><tspan
         x="0 6.3600001"
         y="0"
         sodipodi:role="line"
         id="tspan24">50</tspan></text>
<path
       d="m 177.22589,38.016 v -3.5"
       style="fill:#000000;fill-opacity:1;fill-rule:nonzero;stroke:#000000;stroke-width:0.80000001;stroke-linecap:butt;stroke-linejoin:round;stroke-miterlimit:10;stroke-dasharray:none;stroke-opacity:1"
       id="path28"
       inkscape:connector-curvature="0" /><text
       transform="matrix(1,0,0,-1,167.68683,23.42225)"
       style="font-variant:normal;font-weight:normal;font-size:10px;font-family:'DejaVu Sans';-inkscape-font-specification:DejaVuSans;writing-mode:lr-tb;fill:#000000;fill-opacity:1;fill-rule:nonzero;stroke:none"
       id="text32"><tspan
         x="0 6.3600001 12.72"
         y="0"
         sodipodi:role="line"
         id="tspan30">100</tspan></text>
<path
       d="m 228.92248,38.016 v -3.5"
       style="fill:#000000;fill-opacity:1;fill-rule:nonzero;stroke:#000000;stroke-width:0.80000001;stroke-linecap:butt;stroke-linejoin:round;stroke-miterlimit:10;stroke-dasharray:none;stroke-opacity:1"
       id="path34"
       inkscape:connector-curvature="0" /><text
       transform="matrix(1,0,0,-1,219.38342,23.42225)"
       style="font-variant:normal;font-weight:normal;font-size:10px;font-family:'DejaVu Sans';-inkscape-font-specification:DejaVuSans;writing-mode:lr-tb;fill:#000000;fill-opacity:1;fill-rule:nonzero;stroke:none"
       id="text38"><tspan
         x="0 6.3600001 12.72"
         y="0"
         sodipodi:role="line"
         id="tspan36">150</tspan></text>
<path
       d="m 280.61906,38.016 v -3.5"
       style="fill:#000000;fill-opacity:1;fill-rule:nonzero;stroke:#000000;stroke-width:0.80000001;stroke-linecap:butt;stroke-linejoin:round;stroke-miterlimit:10;stroke-dasharray:none;stroke-opacity:1"
       id="path40"
       inkscape:connector-curvature="0" /><text
       transform="matrix(1,0,0,-1,271.08,23.42225)"
       style="font-variant:normal;font-weight:normal;font-size:10px;font-family:'DejaVu Sans';-inkscape-font-specification:DejaVuSans;writing-mode:lr-tb;fill:#000000;fill-opacity:1;fill-rule:nonzero;stroke:none"
       id="text44"><tspan
         x="0 6.3600001 12.72"
         y="0"
         sodipodi:role="line"
         id="tspan42">200</tspan></text>
<path
       d="m 332.31565,38.016 v -3.5"
       style="fill:#000000;fill-opacity:1;fill-rule:nonzero;stroke:#000000;stroke-width:0.80000001;stroke-linecap:butt;stroke-linejoin:round;stroke-miterlimit:10;stroke-dasharray:none;stroke-opacity:1"
       id="path46"
       inkscape:connector-curvature="0" /><text
       transform="matrix(1,0,0,-1,322.77658,23.42225)"
       style="font-variant:normal;font-weight:normal;font-size:10px;font-family:'DejaVu Sans';-inkscape-font-specification:DejaVuSans;writing-mode:lr-tb;fill:#000000;fill-opacity:1;fill-rule:nonzero;stroke:none"
       id="text50"><tspan
         x="0 6.3600001 12.72"
         y="0"
         sodipodi:role="line"
         id="tspan48">250</tspan></text>
<path
       d="m 384.01223,38.016 v -3.5"
       style="fill:#000000;fill-opacity:1;fill-rule:nonzero;stroke:#000000;stroke-width:0.80000001;stroke-linecap:butt;stroke-linejoin:round;stroke-miterlimit:10;stroke-dasharray:none;stroke-opacity:1"
       id="path52"
       inkscape:connector-curvature="0" /><text
       transform="matrix(1,0,0,-1,374.47317,23.42225)"
       style="font-variant:normal;font-weight:normal;font-size:10px;font-family:'DejaVu Sans';-inkscape-font-specification:DejaVuSans;writing-mode:lr-tb;fill:#000000;fill-opacity:1;fill-rule:nonzero;stroke:none"
       id="text56"><tspan
         x="0 6.3600001 12.72"
         y="0"
         sodipodi:role="line"
         id="tspan54">300</tspan></text>
<text
       transform="matrix(1,0,0,-1,226.33969,9.750375)"
       style="font-variant:normal;font-weight:normal;font-size:10px;font-family:'DejaVu Sans';-inkscape-font-specification:DejaVuSans;writing-mode:lr-tb;fill:#000000;fill-opacity:1;fill-rule:nonzero;stroke:none"
       id="text60"><tspan
         x="0 6.9499998 13.29"
         y="0"
         sodipodi:role="line"
         id="tspan58">Run</tspan></text>
<path
       d="M 57.6,67.235863 H 54.1"
       style="fill:#000000;fill-opacity:1;fill-rule:nonzero;stroke:#000000;stroke-width:0.80000001;stroke-linecap:butt;stroke-linejoin:round;stroke-miterlimit:10;stroke-dasharray:none;stroke-opacity:1"
       id="path62"
       inkscape:connector-curvature="0" /><text
       transform="matrix(1,0,0,-1,37.88125,63.438988)"
       style="font-variant:normal;font-weight:normal;font-size:10px;font-family:'DejaVu Sans';-inkscape-font-specification:DejaVuSans;writing-mode:lr-tb;fill:#000000;fill-opacity:1;fill-rule:nonzero;stroke:none"
       id="text66"><tspan
         x="0 6.3600001"
         y="0"
         sodipodi:role="line"
         id="tspan64">75</tspan></text>
<path
       d="M 57.6,102.29313 H 54.1"
       style="fill:#000000;fill-opacity:1;fill-rule:nonzero;stroke:#000000;stroke-width:0.80000001;stroke-linecap:butt;stroke-linejoin:round;stroke-miterlimit:10;stroke-dasharray:none;stroke-opacity:1"
       id="path68"
       inkscape:connector-curvature="0" /><text
       transform="matrix(1,0,0,-1,31.521875,98.49625)"
       style="font-variant:normal;font-weight:normal;font-size:10px;font-family:'DejaVu Sans';-inkscape-font-specification:DejaVuSans;writing-mode:lr-tb;fill:#000000;fill-opacity:1;fill-rule:nonzero;stroke:none"
       id="text72"><tspan
         x="0 6.3600001 12.72"
         y="0"
         sodipodi:role="line"
         id="tspan70">100</tspan></text>
<path
       d="M 57.6,137.35039 H 54.1"
       style="fill:#000000;fill-opacity:1;fill-rule:nonzero;stroke:#000000;stroke-width:0.80000001;stroke-linecap:butt;stroke-linejoin:round;stroke-miterlimit:10;stroke-dasharray:none;stroke-opacity:1"
       id="path74"
       inkscape:connector-curvature="0" /><text
       transform="matrix(1,0,0,-1,31.521875,133.55351)"
       style="font-variant:normal;font-weight:normal;font-size:10px;font-family:'DejaVu Sans';-inkscape-font-specification:DejaVuSans;writing-mode:lr-tb;fill:#000000;fill-opacity:1;fill-rule:nonzero;stroke:none"
       id="text78"><tspan
         x="0 6.3600001 12.72"
         y="0"
         sodipodi:role="line"
         id="tspan76">125</tspan></text>
<path
       d="M 57.6,172.40765 H 54.1"
       style="fill:#000000;fill-opacity:1;fill-rule:nonzero;stroke:#000000;stroke-width:0.80000001;stroke-linecap:butt;stroke-linejoin:round;stroke-miterlimit:10;stroke-dasharray:none;stroke-opacity:1"
       id="path80"
       inkscape:connector-curvature="0" /><text
       transform="matrix(1,0,0,-1,31.521875,168.61078)"
       style="font-variant:normal;font-weight:normal;font-size:10px;font-family:'DejaVu Sans';-inkscape-font-specification:DejaVuSans;writing-mode:lr-tb;fill:#000000;fill-opacity:1;fill-rule:nonzero;stroke:none"
       id="text84"><tspan
         x="0 6.3600001 12.72"
         y="0"
         sodipodi:role="line"
         id="tspan82">150</tspan></text>
<path
       d="M 57.6,207.46491 H 54.1"
       style="fill:#000000;fill-opacity:1;fill-rule:nonzero;stroke:#000000;stroke-width:0.80000001;stroke-linecap:butt;stroke-linejoin:round;stroke-miterlimit:10;stroke-dasharray:none;stroke-opacity:1"
       id="path86"
       inkscape:connector-curvature="0" /><text
       transform="matrix(1,0,0,-1,31.521875,203.66804)"
       style="font-variant:normal;font-weight:normal;font-size:10px;font-family:'DejaVu Sans';-inkscape-font-specification:DejaVuSans;writing-mode:lr-tb;fill:#000000;fill-opacity:1;fill-rule:nonzero;stroke:none"
       id="text90"><tspan
         x="0 6.3600001 12.72"
         y="0"
         sodipodi:role="line"
         id="tspan88">175</tspan></text>
<path
       d="M 57.6,242.52218 H 54.1"
       style="fill:#000000;fill-opacity:1;fill-rule:nonzero;stroke:#000000;stroke-width:0.80000001;stroke-linecap:butt;stroke-linejoin:round;stroke-miterlimit:10;stroke-dasharray:none;stroke-opacity:1"
       id="path92"
       inkscape:connector-curvature="0" /><text
       transform="matrix(1,0,0,-1,31.521875,238.7253)"
       style="font-variant:normal;font-weight:normal;font-size:10px;font-family:'DejaVu Sans';-inkscape-font-specification:DejaVuSans;writing-mode:lr-tb;fill:#000000;fill-opacity:1;fill-rule:nonzero;stroke:none"
       id="text96"><tspan
         x="0 6.3600001 12.72"
         y="0"
         sodipodi:role="line"
         id="tspan94">200</tspan></text>
<path
       d="M 57.6,277.57944 H 54.1"
       style="fill:#000000;fill-opacity:1;fill-rule:nonzero;stroke:#000000;stroke-width:0.80000001;stroke-linecap:butt;stroke-linejoin:round;stroke-miterlimit:10;stroke-dasharray:none;stroke-opacity:1"
       id="path98"
       inkscape:connector-curvature="0" /><text
       transform="matrix(1,0,0,-1,31.521875,273.78256)"
       style="font-variant:normal;font-weight:normal;font-size:10px;font-family:'DejaVu Sans';-inkscape-font-specification:DejaVuSans;writing-mode:lr-tb;fill:#000000;fill-opacity:1;fill-rule:nonzero;stroke:none"
       id="text102"><tspan
         x="0 6.3600001 12.72"
         y="0"
         sodipodi:role="line"
         id="tspan100">225</tspan></text>
<g
       id="g104"
       transform="rotate(90,-54.275062,78.796938)"><text
         transform="matrix(1,0,0,-1,0,0.40625)"
         style="font-variant:normal;font-weight:normal;font-size:10px;font-family:'DejaVu Sans';-inkscape-font-specification:DejaVuSans;writing-mode:lr-tb;fill:#000000;fill-opacity:1;fill-rule:nonzero;stroke:none"
         id="text108"><tspan
           x="0 6.1083984 12.226562 18.344727 21.123047 24.301758 32.480469 38.632812 44.760742 48.87207 52.050781"
           y="0"
           sodipodi:role="line"
           id="tspan106">Tool wear (</tspan></text>
<text
         transform="matrix(1,0,0,-1,62.314453,0.40625)"
         style="font-style:italic;font-variant:normal;font-size:10px;font-family:'DejaVu Sans';-inkscape-font-specification:DejaVuSans-Oblique;writing-mode:lr-tb;fill:#000000;fill-opacity:1;fill-rule:nonzero;stroke:none"
         id="text112"><tspan
           x="0"
           y="0"
           id="tspan110">m</tspan></text>
<text
         transform="matrix(1,0,0,-1,72.055664,0.40625)"
         style="font-variant:normal;font-weight:normal;font-size:10px;font-family:'DejaVu Sans';-inkscape-font-specification:DejaVuSans;writing-mode:lr-tb;fill:#000000;fill-opacity:1;fill-rule:nonzero;stroke:none"
         id="text116"><tspan
           x="0"
           y="0"
           id="tspan114">)</tspan></text>
<g
         id="g118"
         transform="matrix(0.01,0,0,0.01,55.952148,0.40625)"><g
           id="g120"><g
             id="g122"
             clip-path="url(#clipPath126)"><g
               id="g128"><path
                 d="m -12,-207 146,754 h 90 L 158,207 c -2,-8 -3,-16 -4,-24 -1,-8 -1,-17 -1,-25 0,-30 9,-54 28,-70 19,-16 46,-24 82,-24 48,0 86,13 116,41 30,27 50,68 61,123 l 62,319 h 90 L 510,126 c -2,-6 -3,-12 -3,-16 0,-4 0,-8 0,-12 0,-10 2,-18 6,-22 4,-5 10,-7 19,-7 3,0 7,0 13,2 6,2 14,5 25,9 L 556,8 C 542,1 528,-3 515,-7 c -13,-4 -26,-6 -38,-6 -22,0 -39,7 -51,20 C 414,20 408,39 408,63 390,37 368,17 343,5 317,-7 288,-13 254,-13 223,-13 196,-6 174,7 152,21 137,39 130,62 L 77,-207 h -89"
                 style="fill:#000000;fill-opacity:1;fill-rule:nonzero;stroke:none"
                 id="path130"
                 inkscape:connector-curvature="0" /></g></g></g></g></g><g
       id="g132"><g
         id="g134"
         clip-path="url(#clipPath138)"><path
           d="m 73.832727,50.112 2.067864,3.613177 2.067863,3.008663 2.067863,2.512533 2.067864,2.112334 2.067863,1.796549 1.033932,2.866678 8.271453,12.124156 12.407181,14.087999 33.08581,19.085061 7.23752,0.55228 4.13573,3.06886 3.1018,2.05263 3.10179,1.82138 3.1018,1.57932 3.10179,1.33136 3.1018,1.08224 3.10179,0.83656 3.1018,0.59868 3.10179,0.37263 3.1018,0.1621 11.37324,0.0104 16.54291,0.0268 35.15368,10.26619 29.98402,9.77123 33.08581,30.67881 34.11975,59.87665 32.05188,49.8019 27.91615,5.99486 v 0"
           style="fill:none;stroke:#1f77b4;stroke-width:1.5;stroke-linecap:square;stroke-linejoin:round;stroke-miterlimit:10;stroke-dasharray:none;stroke-opacity:1"
           id="path140"
           inkscape:connector-curvature="0" /></g></g><g
       id="g142"><g
         id="g144"
         clip-path="url(#clipPath148)"><path
           d="m 73.832727,63.326178 1.033932,-1.092672 1.033932,-6.334198 1.033931,-0.542559 1.033932,0.604333 1.033932,0.05903 1.033931,4.743311 1.033932,-0.590842 1.033932,-3.63885 1.033931,0.184905 1.033932,1.16018 1.033932,9.910535 1.033931,-0.396984 1.033932,3.10746 1.033932,1.738099 1.033931,-0.532578 1.033932,4.830548 1.033932,-3.045717 1.033931,-0.589131 1.033932,-2.656041 1.033932,8.537408 1.033931,3.546263 1.033932,0.09437 1.033932,0.399305 1.033931,-0.419472 1.033932,4.127199 1.033931,-0.199754 1.03393,0.0076 1.03393,-0.140655 1.03394,1.603692 1.03393,-3.512905 1.03393,3.193968 1.03393,-1.140367 1.03393,5.396966 1.03393,0.676923 1.03394,1.407597 1.03393,2.090726 1.03393,-1.934322 1.03393,2.133873 1.03393,5.614378 1.03393,-6.098897 1.03394,2.75266 1.03393,3.810687 1.03393,-1.69093 1.03393,2.62397 1.03393,-1.08101 1.03393,-6.578253 1.03394,7.004313 1.03393,-0.77247 1.03393,0.15323 1.03393,3.75678 1.03393,-0.18587 1.03393,-0.58944 1.03394,0.97797 1.03393,-1.002 1.03393,3.06227 1.03393,-0.19835 1.03393,-4.34239 1.03393,6.21898 1.03394,0.71407 1.03393,-0.39155 1.03393,0.95539 1.03393,-2.72786 1.03393,2.43025 1.03393,5.8037 1.03394,-0.44585 1.03393,0.40014 1.03393,-0.56889 1.03393,0.73294 1.03393,-0.42523 1.03393,-1.16641 1.03394,0.6853 1.03393,0.95792 1.03393,-0.40065 1.03393,0.84263 1.03393,-0.84311 1.03393,-0.15349 1.03394,2.17601 1.03393,-0.79307 1.03393,1.78995 1.03393,-1.4515 1.03393,2.20823 1.03393,0.60299 1.03394,-1.81678 1.03393,0.68199 1.03393,2.98429 1.03393,-7.04884 1.03393,6.7783 2.06787,-0.15832 1.03393,-0.76042 1.03393,0.25968 1.03393,1.36132 1.03393,0.19133 1.03394,-0.65451 1.03393,0.38741 1.03393,3.56913 1.03393,0.495 1.03393,-0.84536 1.03393,1.58909 1.03393,-1.96165 1.03394,1.85973 1.03393,0.52088 1.03393,-1.1063 1.03393,0.47791 2.06786,-1.22939 1.03394,1.47581 1.03393,-0.091 1.03393,-0.46136 1.03393,-0.82409 1.03393,0.38758 1.03393,-0.26499 1.03394,0.44038 1.03393,-0.74771 1.03393,0.40712 1.03393,1.65763 1.03393,-1.74756 1.03393,2.19457 1.03394,-2.32105 1.03393,0.91162 1.03393,-1.4965 1.03393,-0.83757 1.03393,2.36834 1.03393,0.48218 1.03394,-0.90336 1.03393,-1.87702 1.03393,1.28083 1.03393,0.26333 1.03393,2.85154 1.03393,-0.17035 1.03394,-0.79411 1.03393,1.45745 1.03393,-0.5439 1.03393,0.93104 1.03393,0.20419 2.06787,-0.54044 1.03393,1.07716 1.03393,-1.97781 1.03393,1.91994 1.03393,0.17943 1.03393,1.45924 1.03394,-0.61403 1.03393,-1.17333 1.03393,-0.33219 1.03393,0.5198 1.03393,1.08642 1.03393,0.90822 1.03394,-2.41097 1.03393,2.75691 1.03393,0.45065 2.06786,-0.7529 1.03394,0.52615 1.03393,0.37551 1.03393,0.17464 1.03393,0.53301 1.03393,0.95132 1.03393,-1.35846 1.03393,2.39285 1.03394,0.59837 1.03393,-1.06781 1.03393,0.81578 1.03393,-0.67229 1.03393,-0.28408 1.03393,1.03334 1.03394,1.85363 1.03393,-0.0931 1.03393,-1.26142 1.03393,1.08057 1.03393,-1.4832 2.06787,2.69485 1.03393,-0.72086 1.03393,1.3612 1.03393,0.30069 1.03393,-0.30373 1.03393,0.70652 1.03394,1.08273 1.03393,-0.56034 1.03393,0.12818 1.03393,-3.54914 1.03393,5.79014 1.03393,0.38703 1.03394,-0.68485 2.06786,1.16917 1.03393,0.69977 1.03393,-0.62822 1.03393,1.66749 1.03394,-0.6584 1.03393,1.14176 1.03393,3.98122 1.03393,-1.20771 1.03393,1.11317 1.03393,-0.6408 1.03394,2.999 1.03393,-0.28356 1.03393,0.19459 1.03393,1.15994 1.03393,-0.72211 1.03393,2.69083 1.03394,-3.67742 1.03393,4.75708 1.03393,1.52858 1.03393,-0.23899 1.03393,0.40022 1.03393,1.11223 1.03394,0.56163 1.03393,1.64603 1.03393,0.66413 1.03393,-0.21323 1.03393,1.44627 1.03393,-13.51616 1.03394,13.49942 1.03393,3.30652 1.03393,1.2438 1.03393,-1.31197 1.03393,1.74321 1.03393,-0.0207 1.03394,2.61446 1.03393,3.94769 1.03393,-2.12129 1.03393,4.63056 1.03393,-1.22533 1.03393,-0.18902 1.03394,3.22148 1.03393,0.91675 1.03393,2.42422 1.03393,12.60119 1.03393,-9.96548 1.03394,1.06465 1.03393,2.41692 1.03393,1.82915 1.03393,5.80445 1.03393,-4.14805 1.03393,7.1104 1.03394,-2.47177 1.03393,1.3629 1.03393,3.12967 1.03393,1.2433 1.03393,6.97555 1.03393,1.21832 1.03394,-2.30085 1.03393,3.81357 1.03393,12.10073 1.03393,-6.54311 1.03393,-2.56387 1.03393,1.79322 1.03394,5.0018 1.03393,0.38068 1.03393,1.95924 1.03393,-0.46984 1.03393,5.6444 1.03393,-3.43034 1.03394,12.81223 1.03393,-3.33057 1.03393,0.86411 2.06786,4.09879 1.03393,1.01254 1.03394,2.88245 1.03393,-1.76162 1.03393,2.4174 1.03393,3.24934 1.03393,-1.55036 1.03393,-17.20414 1.03394,21.07266 1.03393,0.57276 2.06786,5.28281 1.03393,5.19663 2.06787,-4.9864 1.03393,6.67674 1.03393,-2.03713 1.03393,13.96644 1.03393,-12.83155 1.03393,5.34974 1.03394,1.75513 1.03393,-0.24643 1.03393,3.55774 1.03393,0.0569 1.03393,3.20509 1.03393,2.33654 1.03394,3.3326 1.03393,-3.39961 1.03393,5.70771 1.03393,0.43242 1.03393,-0.51471 1.03393,-0.81806 1.03394,3.84278 1.03393,0.37331 1.03393,0.85322 1.03393,-0.1608 1.03393,1.23578 1.03393,-6.92024 1.03394,6.24877 1.03393,-0.62347 1.03393,-1.04975 1.03393,-0.0802 1.03393,1.69608 1.03393,-1.94518 1.03394,1.1878 1.03393,-0.69699 1.03393,1.63825 1.03393,-1.97689 1.03393,2.33265 1.03393,1.94368 1.03394,-2.79731 2.06786,2.66405 1.03393,-1.26389 1.03393,0.86761 v 0"
           style="fill:none;stroke:#ff7f0e;stroke-width:1.5;stroke-linecap:square;stroke-linejoin:round;stroke-miterlimit:10;stroke-dasharray:none;stroke-opacity:1"
           id="path150"
           inkscape:connector-curvature="0" /></g></g><g
       id="g152"><g
         id="g154"
         clip-path="url(#clipPath158)"><path
           d="m 75.900591,61.035933 1.033931,-3.771009 1.033932,-2.846488 1.033932,0.756436 1.033931,0.195421 1.033932,-0.01133 1.033932,1.999435 1.033931,0.520424 1.033932,-1.642197 1.033932,2.473288 1.033931,0.280978 1.033932,0.797807 1.033932,7.85964 1.033931,6.687198 1.033932,0.780829 2.067863,2.518136 1.033932,-5.841408 1.033932,0.147534 1.033931,0.839414 1.033932,-0.0027 1.033932,8.898434 1.033931,1.463187 1.033932,1.062138 1.033931,-0.46922 1.03393,1.156393 1.03393,0.782498 1.03394,0.08514 1.03393,1.123677 1.03393,0.307821 1.03393,0.51148 1.03393,-0.496224 1.03393,5.123252 1.03394,0.697508 1.03393,2.029444 1.03393,1.299498 1.03393,0.311737 1.03393,-0.01872 1.03393,3.365256 1.03394,0.64209 1.03393,-0.0237 1.03393,3.20105 1.03393,1.16258 1.03393,0.67769 1.03393,0.23736 1.03394,-6.229362 1.03393,-0.159559 1.03393,0.560821 1.03393,-0.189472 1.03393,1.875042 1.03393,2.54185 1.03394,-1.23257 1.03393,2.26297 1.03393,0.86236 2.06786,0.45006 1.03393,0.37272 1.03394,0.64023 1.03393,3.51046 1.03393,-2.45883 1.03393,3.39093 1.03393,0.47333 3.1018,2.13906 1.03393,1.83317 1.03393,0.23173 1.03393,0.45114 1.03393,-1.26588 1.03394,-0.85574 1.03393,0.43008 1.03393,1.10305 1.03393,-0.50029 1.03393,1.88562 1.03393,0.39298 1.03394,-2.55291 1.03393,0.40133 1.03393,-0.57619 1.03393,0.59543 1.03393,0.39931 1.03393,6.71968 1.03394,-2.12941 1.03393,0.23088 1.03393,-1.25072 1.03393,2.35175 1.03393,-1.5912 1.03393,0.79747 1.03394,0.0376 2.06786,-0.25341 1.03393,0.17584 1.03393,0.44089 1.03394,0.0909 1.03393,0.28991 2.06786,1.14739 1.03393,-0.14837 1.03393,1.072 1.03393,3.01025 1.03394,0.20841 1.03393,0.41731 2.06786,0.42919 1.03393,-0.87725 1.03393,0.16491 1.03394,-2.68649 1.03393,-0.29795 1.03393,2.22715 1.03393,-0.965 1.03393,-0.28642 1.03393,0.82968 1.03394,-1.00933 2.06786,-0.41111 1.03393,1.42836 1.03393,0.14002 1.03393,-2.6e-4 1.03394,0.16992 1.03393,0.3773 1.03393,0.68912 1.03393,-4.75638 1.03393,-0.005 1.03393,-0.44177 1.03394,5.14392 1.03393,-2.75502 1.03393,-0.47605 1.03393,2.84776 1.03393,-1.15564 1.03393,0.069 1.03394,2.11839 2.06786,-0.37742 1.03393,0.0438 1.03393,0.2612 1.03394,1.82204 1.03393,-0.0233 1.03393,-1.0814 1.03393,1.37488 1.03393,-1.63124 1.03393,0.3044 1.03393,1.70399 1.03394,2.92712 1.03393,-2.72464 1.03393,0.0436 1.03393,-1.03984 1.03393,-0.0807 1.03393,0.2873 1.03394,1.5036 1.03393,0.18325 1.03393,2.76189 1.03393,0.47626 1.03393,-1.21624 1.03394,-1.78391 1.03393,1.52451 1.03393,0.17548 1.03393,-0.008 1.03393,0.41874 1.03393,0.66218 1.03393,-0.10264 1.03394,0.73641 1.03393,1.86751 1.03393,0.13688 1.03393,-0.1234 1.03393,0.27072 1.03393,-2.47652 1.03394,-0.3532 1.03393,3.31349 2.06786,-0.23043 1.03393,1.46413 1.03393,-1.50487 1.03394,0.37625 1.03393,1.97135 1.03393,1.13281 1.03393,0.27395 1.03393,0.62947 1.03393,-1.69484 1.03394,0.38398 1.03393,0.75763 1.03393,-0.17984 1.03393,-0.35239 1.03393,0.18087 1.03393,0.31304 1.03394,0.031 1.03393,0.50865 1.03393,1.94906 2.06786,1.29376 1.03393,0.42247 2.06787,1.60233 1.03393,0.35457 1.03393,0.89614 1.03393,1.11159 2.06787,1.89391 1.03393,1.82078 1.03393,-2.30095 2.06786,1.71587 1.03393,0.79456 1.03394,0.55573 1.03393,0.91238 1.03393,3.86291 1.03393,0.79658 1.03393,1.10711 1.03393,-2.74109 1.03394,2.18513 1.03393,-0.29721 1.03393,0.87337 1.03393,1.55708 1.03393,0.91405 1.03393,1.06477 2.06787,1.8506 1.03393,1.82936 1.03393,1.07885 1.03393,0.81308 1.03393,1.18632 1.03394,0.065 3.10179,4.01637 1.03393,3.15806 1.03393,1.8202 1.03394,-4.94582 1.03393,1.5513 1.03393,3.64555 1.03393,1.51264 1.03393,4.03105 1.03394,1.56898 1.03393,-0.6909 1.03393,3.17963 1.03393,1.26011 1.03393,1.49218 1.03393,1.81008 1.03394,2.09231 1.03393,1.22561 1.03393,0.7054 1.03393,1.1929 1.03393,3.20174 1.03393,1.16148 1.03394,3.5546 1.03393,1.79153 1.03393,4.35584 1.03393,2.17995 1.03393,0.89053 1.03393,0.52552 2.06787,3.51717 1.03393,1.74377 1.03393,1.27566 1.03393,1.81442 1.03393,2.42493 1.03394,1.10924 1.03393,2.30067 1.03393,3.66242 2.06786,2.89514 1.03393,2.20535 4.13573,6.28191 1.03393,1.57734 1.03393,0.60533 1.03394,0.20071 1.03393,3.16193 1.03393,-0.37265 1.03393,1.81613 2.06786,5.8517 1.03394,0.70827 1.03393,1.85256 1.03393,2.71034 1.03393,0.84104 1.03393,1.67468 1.03393,-1.18755 1.03394,3.1641 1.03393,1.60559 1.03393,2.08713 1.03393,1.64083 1.03393,1.92727 1.03393,1.36091 3.1018,5.52594 1.03393,1.3435 2.06786,0.6353 1.03394,0.14264 1.03393,0.78793 1.03393,0.24508 1.03393,1.1326 2.06786,0.59583 1.03394,0.27354 1.03393,0.12398 1.03393,-0.0817 1.03393,-0.50131 1.03393,-0.70181 1.03393,0.43663 1.03394,0.13168 1.03393,-0.0242 1.03393,0.0935 1.03393,-0.13971 2.06786,0.19031 1.03394,0.29875 1.03393,0.66494 1.03393,0.17308 2.06786,0.79778 v 0"
           style="fill:none;stroke:#2ca02c;stroke-width:1.5;stroke-linecap:square;stroke-linejoin:round;stroke-miterlimit:10;stroke-dasharray:none;stroke-opacity:1"
           id="path160"
           inkscape:connector-curvature="0" /></g></g><g
       id="g162"><g
         id="g164"
         clip-path="url(#clipPath168)"><path
           d="m 75.900591,61.035933 1.033931,-3.771009 1.033932,-0.87013 1.033932,-0.293025 1.033931,-0.08743 1.033932,0.917728 1.033932,1.923093 1.033931,0.635244 1.033932,0.04251 1.033932,0.488523 1.033931,2.780261 1.033932,3.196705 1.033932,3.744472 1.033931,4.527399 1.033932,2.091128 1.033932,-0.411553 1.033931,1.77992 1.033932,-1.828528 1.033932,-1.41777 1.033931,4.616512 1.033932,-0.113025 1.033932,3.900581 1.033931,1.726123 1.033932,3.409776 1.033931,-1.116085 1.03393,-0.759483 1.03393,0.996462 1.03394,0.04497 1.03393,1.929039 1.03393,-3.350861 1.03393,1.800284 1.03393,-0.685419 1.03393,3.372597 1.03394,0.23163 1.03393,4.455687 1.03393,0.998306 1.03393,1.396419 1.03393,-1.186443 1.03393,3.583436 1.03394,-1.207682 1.03393,1.35567 1.03393,3.941855 1.03393,0.44649 1.03393,-2.82184 1.03393,3.52501 1.03394,-3.92838 1.03393,0.57609 1.03393,1.56612 1.03393,-0.35044 1.03393,3.04625 1.03393,4.94672 1.03394,-5.53281 1.03393,1.95546 1.03393,0.60296 1.03393,-0.89252 1.03393,0.63537 1.03393,-1.17736 1.03394,2.81804 1.03393,3.34909 1.03393,-0.20841 1.03393,1.23555 1.03393,2.08773 1.03393,-4.99761 1.03394,3.37737 1.03393,2.90291 1.03393,2.16645 1.03393,2.88775 1.03393,0.0828 1.03393,-5.89433 1.03394,-0.39244 1.03393,-0.15668 1.03393,0.77023 1.03393,-0.50759 1.03393,0.77006 1.03393,0.54122 1.03394,-0.36637 1.03393,0.63263 1.03393,0.34646 1.03393,0.77858 1.03393,0.4753 1.03393,1.72454 1.03394,-0.43989 1.03393,0.28584 1.03393,-0.59654 1.03393,2.66196 1.03393,-4.29401 1.03393,3.04877 1.03394,4.04695 1.03393,1.65064 1.03393,-2.16266 1.03393,3.5489 1.03393,-6.49623 1.03394,0.50951 1.03393,0.029 1.03393,0.66055 1.03393,2.0022 1.03393,0.84782 1.03393,1.23079 1.03393,2.02557 1.03394,0.1492 1.03393,-2.32118 1.03393,0.38343 1.03393,0.91071 1.03393,-0.98983 1.03393,0.91345 1.03394,-1.86514 1.03393,-0.19335 1.03393,0.85291 1.03393,-0.25912 1.03393,0.002 1.03393,0.47693 1.03394,-1.50887 1.03393,0.0212 1.03393,-0.1445 2.06786,1.03038 1.03393,0.0684 1.03394,0.7478 1.03393,0.34073 1.03393,0.55378 1.03393,-1.91377 1.03393,0.37489 1.03393,-1.58303 1.03394,1.79756 1.03393,-0.43318 1.03393,0.20271 1.03393,0.89346 1.03393,-1.91453 1.03393,0.98751 1.03394,1.49667 1.03393,1.85198 2.06786,1.10931 1.03393,-1.92117 1.03394,0.59849 1.03393,1.0254 1.03393,-1.06456 1.03393,0.90559 1.03393,-1.23899 1.03393,0.38064 1.03393,0.68683 1.03394,1.39009 1.03393,-0.22882 1.03393,1.25668 1.03393,-1.64052 1.03393,-0.15971 1.03393,-0.88956 1.03394,0.92417 1.03393,0.28634 1.03393,1.43674 1.03393,0.81848 1.03393,0.0438 1.03394,-0.24695 1.03393,1.92511 1.03393,-2.06707 1.03393,-0.0736 1.03393,0.64099 1.03393,1.06305 1.03393,-0.26494 2.06787,1.92347 2.06786,0.48902 1.03393,1.08554 1.03393,-2.11501 1.03394,-0.19373 1.03393,1.61967 1.03393,0.1674 1.03393,0.69813 1.03393,1.13838 1.03393,-0.83597 1.03394,-1.18742 1.03393,0.68558 1.03393,1.0943 1.03393,0.3014 1.03393,1.76314 2.06787,-0.63651 1.03393,1.44494 1.03393,-0.67824 1.03393,0.27322 1.03393,-0.81255 1.03393,2.08535 1.03394,0.56316 2.06786,3.08772 1.03393,3.05597 1.03393,-4.70594 1.03393,-0.14174 1.03394,1.69556 1.03393,-0.0479 1.03393,0.59272 1.03393,2.30687 1.03393,1.50657 1.03393,0.57098 2.06787,3.52286 1.03393,-2.47213 1.03393,1.52244 1.03393,0.74041 1.03393,0.97632 1.03394,-0.34776 1.03393,-0.66264 1.03393,2.64053 1.03393,1.1389 1.03393,1.42777 1.03393,-0.34043 1.03394,3.63903 1.03393,-2.09775 1.03393,0.53696 1.03393,1.35192 1.03393,0.63971 1.03393,0.84678 1.03394,-4.24856 1.03393,6.1817 1.03393,1.74955 1.03393,1.10215 1.03393,0.20159 1.03393,8.08348 1.03394,-6.43257 1.03393,0.0179 1.03393,2.0721 1.03393,1.70292 1.03393,2.35816 1.03393,1.97908 1.03394,-0.0187 1.03393,0.30768 1.03393,2.6209 1.03393,0.0684 1.03393,6.67901 2.06787,1.37728 1.03393,1.975 1.03393,1.16156 1.03393,-1.1168 1.03393,2.51688 1.03394,3.50386 1.03393,0.84329 1.03393,1.43585 1.03393,0.4963 1.03393,2.93637 1.03393,1.78605 1.03394,3.36351 1.03393,1.71281 1.03393,2.17564 1.03393,5.08363 1.03393,0.5661 1.03393,0.70002 2.06787,4.0296 1.03393,-1.11251 2.06786,3.73449 1.03393,2.66802 1.03394,0.36293 1.03393,3.74453 1.03393,2.00788 1.03393,2.52268 1.03393,1.63898 1.03393,3.00718 1.03394,0.0596 1.03393,1.99475 2.06786,2.5757 1.03393,1.62484 1.03393,1.1251 1.03394,-3.59029 1.03393,2.30567 2.06786,2.52739 1.03393,2.22097 1.03393,7.32733 2.06787,2.39391 1.03393,1.97456 1.03393,0.9683 1.03393,3.00452 1.03393,0.48647 1.03394,2.41211 1.03393,1.19228 1.03393,1.60488 1.03393,-0.48303 1.03393,2.31885 2.06787,3.39967 1.03393,2.43157 1.03393,0.94527 1.03393,1.61509 1.03393,0.77277 1.03393,0.38355 1.03394,0.0416 1.03393,0.7932 2.06786,0.84841 1.03393,0.55426 1.03393,0.7197 1.03394,-0.75858 1.03393,0.31989 1.03393,0.0362 1.03393,-0.15464 1.03393,-0.27236 1.03393,0.7318 1.03394,-0.22755 2.06786,-0.003 1.03393,0.1812 1.03393,-0.18007 2.06787,0.45353 1.03393,0.40089 1.03393,0.11818 1.03393,0.67785 1.03393,0.40843 v 0"
           style="fill:none;stroke:#d62728;stroke-width:1.5;stroke-linecap:square;stroke-linejoin:round;stroke-miterlimit:10;stroke-dasharray:none;stroke-opacity:1"
           id="path170"
           inkscape:connector-curvature="0" /></g></g><g
       id="g172"><path
         d="M 57.6,38.016 V 304.128"
         style="fill:none;stroke:#000000;stroke-width:0.80000001;stroke-linecap:square;stroke-linejoin:miter;stroke-miterlimit:10;stroke-dasharray:none;stroke-opacity:1"
         id="path174"
         inkscape:connector-curvature="0" /><path
         d="M 414.72,38.016 V 304.128"
         style="fill:none;stroke:#000000;stroke-width:0.80000001;stroke-linecap:square;stroke-linejoin:miter;stroke-miterlimit:10;stroke-dasharray:none;stroke-opacity:1"
         id="path176"
         inkscape:connector-curvature="0" /><path
         d="M 57.6,38.016 H 414.72"
         style="fill:none;stroke:#000000;stroke-width:0.80000001;stroke-linecap:square;stroke-linejoin:miter;stroke-miterlimit:10;stroke-dasharray:none;stroke-opacity:1"
         id="path178"
         inkscape:connector-curvature="0" /><path
         d="M 57.6,304.128 H 414.72"
         style="fill:none;stroke:#000000;stroke-width:0.80000001;stroke-linecap:square;stroke-linejoin:miter;stroke-miterlimit:10;stroke-dasharray:none;stroke-opacity:1"
         id="path180"
         inkscape:connector-curvature="0" /><path
         d="m 64.6,236.878 h 156.32813 c 1.33333,0 2,0.66667 2,2 v 58.25 c 0,1.33333 -0.66667,2 -2,2 H 64.6 c -1.333333,0 -2,-0.66667 -2,-2 v -58.25 c 0,-1.33333 0.666667,-2 2,-2 z"
         style="fill:#ffffff;fill-opacity:0.8;fill-rule:nonzero;stroke:#cccccc;stroke-width:1;stroke-linecap:butt;stroke-linejoin:miter;stroke-miterlimit:10;stroke-dasharray:none;stroke-opacity:0.8"
         id="path182"
         inkscape:connector-curvature="0" /><path
         d="m 66.6,291.03425 h 20"
         style="fill:none;stroke:#1f77b4;stroke-width:1.5;stroke-linecap:square;stroke-linejoin:round;stroke-miterlimit:10;stroke-dasharray:none;stroke-opacity:1"
         id="path184"
         inkscape:connector-curvature="0" /><text
         transform="matrix(1,0,0,-1,94.6,287.53425)"
         style="font-variant:normal;font-weight:normal;font-size:10px;font-family:'DejaVu Sans';-inkscape-font-specification:DejaVuSans;writing-mode:lr-tb;fill:#000000;fill-opacity:1;fill-rule:nonzero;stroke:none"
         id="text188"><tspan
           x="0 6.9499998 13.27 20.110001"
           y="0"
           sodipodi:role="line"
           id="tspan186">REAL</tspan></text>
<path
         d="m 66.6,276.36237 h 20"
         style="fill:none;stroke:#ff7f0e;stroke-width:1.5;stroke-linecap:square;stroke-linejoin:round;stroke-miterlimit:10;stroke-dasharray:none;stroke-opacity:1"
         id="path190"
         inkscape:connector-curvature="0" /><text
         transform="matrix(1,0,0,-1,94.6,272.86237)"
         style="font-variant:normal;font-weight:normal;font-size:10px;font-family:'DejaVu Sans';-inkscape-font-specification:DejaVuSans;writing-mode:lr-tb;fill:#000000;fill-opacity:1;fill-rule:nonzero;stroke:none"
         id="text194"><tspan
           x="0 8.6300001 14.75 21.09 23.870001 27.790001 33.91 38.02 44.169998 50.52 53.700001 60.049999 65.970001 69.150002 76.129997 83.610001"
           y="0"
           sodipodi:role="line"
           id="tspan192">Monitored by CNN</tspan></text>
<path
         d="m 66.6,261.6905 h 20"
         style="fill:none;stroke:#2ca02c;stroke-width:1.5;stroke-linecap:square;stroke-linejoin:round;stroke-miterlimit:10;stroke-dasharray:none;stroke-opacity:1"
         id="path196"
         inkscape:connector-curvature="0" /><text
         transform="matrix(1,0,0,-1,94.6,258.1905)"
         style="font-variant:normal;font-weight:normal;font-size:10px;font-family:'DejaVu Sans';-inkscape-font-specification:DejaVuSans;writing-mode:lr-tb;fill:#000000;fill-opacity:1;fill-rule:nonzero;stroke:none"
         id="text200"><tspan
           x="0 6.98 13.1 22.84 29.190001 33.299999 39.450001 45.790001 51.939999 58.279999 63.490002 66.269997 72.190002 78.339996 83.339996 93.080002 95.860001"
           y="0"
           sodipodi:role="line"
           id="tspan198">Comprehensive_mid</tspan></text>
<path
         d="m 66.6,246.73737 h 20"
         style="fill:none;stroke:#d62728;stroke-width:1.5;stroke-linecap:square;stroke-linejoin:round;stroke-miterlimit:10;stroke-dasharray:none;stroke-opacity:1"
         id="path202"
         inkscape:connector-curvature="0" /><text
         transform="matrix(1,0,0,-1,94.6,243.23737)"
         style="font-variant:normal;font-weight:normal;font-size:10px;font-family:'DejaVu Sans';-inkscape-font-specification:DejaVuSans;writing-mode:lr-tb;fill:#000000;fill-opacity:1;fill-rule:nonzero;stroke:none"
         id="text206"><tspan
           x="0 6.98 13.1 22.84 29.190001 33.299999 39.450001 45.790001 51.939999 58.279999 63.490002 66.269997 72.190002 78.339996 83.339996 89.470001 95.389999 101.54 105.65 111.78 118.13"
           y="0"
           sodipodi:role="line"
           id="tspan204">Comprehensive_average</tspan></text>
</g></g></svg>