<?xml version="1.0" encoding="UTF-8" standalone="no"?>
<!-- Created with Inkscape (http://www.inkscape.org/) -->

<svg
   xmlns:dc="http://purl.org/dc/elements/1.1/"
   xmlns:cc="http://creativecommons.org/ns#"
   xmlns:rdf="http://www.w3.org/1999/02/22-rdf-syntax-ns#"
   xmlns:svg="http://www.w3.org/2000/svg"
   xmlns="http://www.w3.org/2000/svg"
   xmlns:sodipodi="http://sodipodi.sourceforge.net/DTD/sodipodi-0.dtd"
   xmlns:inkscape="http://www.inkscape.org/namespaces/inkscape"
   version="1.1"
   id="svg2"
   xml:space="preserve"
   width="509.9993"
   height="374.99646"
   viewBox="0 0 509.99929 374.99646"
   sodipodi:docname="short_recursive_prolong.svg"
   inkscape:version="0.92.3 (unknown)"><metadata
     id="metadata8"><rdf:RDF><cc:Work
         rdf:about=""><dc:format>image/svg+xml</dc:format><dc:type
           rdf:resource="http://purl.org/dc/dcmitype/StillImage" /><dc:title></dc:title></cc:Work></rdf:RDF></metadata><defs
     id="defs6"><clipPath
       clipPathUnits="userSpaceOnUse"
       id="clipPath100"><path
         d="M 57.6,38.016 H 414.72 V 304.128 H 57.6 Z"
         id="path98"
         inkscape:connector-curvature="0" /></clipPath><clipPath
       clipPathUnits="userSpaceOnUse"
       id="clipPath110"><path
         d="M 57.6,38.016 H 414.72 V 304.128 H 57.6 Z"
         id="path108"
         inkscape:connector-curvature="0" /></clipPath><clipPath
       clipPathUnits="userSpaceOnUse"
       id="clipPath120"><path
         d="M 57.6,38.016 H 414.72 V 304.128 H 57.6 Z"
         id="path118"
         inkscape:connector-curvature="0" /></clipPath></defs><sodipodi:namedview
     pagecolor="#ffffff"
     bordercolor="#666666"
     borderopacity="1"
     objecttolerance="10"
     gridtolerance="10"
     guidetolerance="10"
     inkscape:pageopacity="0"
     inkscape:pageshadow="2"
     inkscape:window-width="1543"
     inkscape:window-height="876"
     id="namedview4"
     showgrid="false"
     fit-margin-top="0"
     fit-margin-left="0"
     fit-margin-right="0"
     fit-margin-bottom="0"
     inkscape:zoom="1.0243056"
     inkscape:cx="241.53344"
     inkscape:cy="204.26321"
     inkscape:window-x="1657"
     inkscape:window-y="24"
     inkscape:window-maximized="1"
     inkscape:current-layer="g10" /><g
     id="g10"
     inkscape:groupmode="layer"
     inkscape:label="FORECAST_10_20_in_c3"
     transform="matrix(1.3333333,0,0,-1.3333333,-43.494009,406.03732)"><path
       d="M 57.6,38.016 H 414.72 V 304.128 H 57.6 Z"
       style="fill:#ffffff;fill-opacity:1;fill-rule:nonzero;stroke:none"
       id="path14"
       inkscape:connector-curvature="0" /><path
       d="m 73.832727,38.016 v -3.5"
       style="fill:#000000;fill-opacity:1;fill-rule:nonzero;stroke:#000000;stroke-width:0.80000001;stroke-linecap:butt;stroke-linejoin:round;stroke-miterlimit:10;stroke-dasharray:none;stroke-opacity:1"
       id="path16"
       inkscape:connector-curvature="0" /><text
       transform="matrix(1,0,0,-1,70.65304,23.42225)"
       style="font-variant:normal;font-weight:normal;font-size:10px;font-family:'DejaVu Sans';-inkscape-font-specification:DejaVuSans;writing-mode:lr-tb;fill:#000000;fill-opacity:1;fill-rule:nonzero;stroke:none"
       id="text20"><tspan
         x="0"
         y="0"
         id="tspan18">0</tspan></text>
<path
       d="m 125.52931,38.016 v -3.5"
       style="fill:#000000;fill-opacity:1;fill-rule:nonzero;stroke:#000000;stroke-width:0.80000001;stroke-linecap:butt;stroke-linejoin:round;stroke-miterlimit:10;stroke-dasharray:none;stroke-opacity:1"
       id="path22"
       inkscape:connector-curvature="0" /><text
       transform="matrix(1,0,0,-1,119.16994,23.42225)"
       style="font-variant:normal;font-weight:normal;font-size:10px;font-family:'DejaVu Sans';-inkscape-font-specification:DejaVuSans;writing-mode:lr-tb;fill:#000000;fill-opacity:1;fill-rule:nonzero;stroke:none"
       id="text26"><tspan
         x="0 6.3600001"
         y="0"
         sodipodi:role="line"
         id="tspan24">50</tspan></text>
<path
       d="m 177.22589,38.016 v -3.5"
       style="fill:#000000;fill-opacity:1;fill-rule:nonzero;stroke:#000000;stroke-width:0.80000001;stroke-linecap:butt;stroke-linejoin:round;stroke-miterlimit:10;stroke-dasharray:none;stroke-opacity:1"
       id="path28"
       inkscape:connector-curvature="0" /><text
       transform="matrix(1,0,0,-1,167.68683,23.42225)"
       style="font-variant:normal;font-weight:normal;font-size:10px;font-family:'DejaVu Sans';-inkscape-font-specification:DejaVuSans;writing-mode:lr-tb;fill:#000000;fill-opacity:1;fill-rule:nonzero;stroke:none"
       id="text32"><tspan
         x="0 6.3600001 12.72"
         y="0"
         sodipodi:role="line"
         id="tspan30">100</tspan></text>
<path
       d="m 228.92248,38.016 v -3.5"
       style="fill:#000000;fill-opacity:1;fill-rule:nonzero;stroke:#000000;stroke-width:0.80000001;stroke-linecap:butt;stroke-linejoin:round;stroke-miterlimit:10;stroke-dasharray:none;stroke-opacity:1"
       id="path34"
       inkscape:connector-curvature="0" /><text
       transform="matrix(1,0,0,-1,219.38342,23.42225)"
       style="font-variant:normal;font-weight:normal;font-size:10px;font-family:'DejaVu Sans';-inkscape-font-specification:DejaVuSans;writing-mode:lr-tb;fill:#000000;fill-opacity:1;fill-rule:nonzero;stroke:none"
       id="text38"><tspan
         x="0 6.3600001 12.72"
         y="0"
         sodipodi:role="line"
         id="tspan36">150</tspan></text>
<path
       d="m 280.61906,38.016 v -3.5"
       style="fill:#000000;fill-opacity:1;fill-rule:nonzero;stroke:#000000;stroke-width:0.80000001;stroke-linecap:butt;stroke-linejoin:round;stroke-miterlimit:10;stroke-dasharray:none;stroke-opacity:1"
       id="path40"
       inkscape:connector-curvature="0" /><text
       transform="matrix(1,0,0,-1,271.08,23.42225)"
       style="font-variant:normal;font-weight:normal;font-size:10px;font-family:'DejaVu Sans';-inkscape-font-specification:DejaVuSans;writing-mode:lr-tb;fill:#000000;fill-opacity:1;fill-rule:nonzero;stroke:none"
       id="text44"><tspan
         x="0 6.3600001 12.72"
         y="0"
         sodipodi:role="line"
         id="tspan42">200</tspan></text>
<path
       d="m 332.31565,38.016 v -3.5"
       style="fill:#000000;fill-opacity:1;fill-rule:nonzero;stroke:#000000;stroke-width:0.80000001;stroke-linecap:butt;stroke-linejoin:round;stroke-miterlimit:10;stroke-dasharray:none;stroke-opacity:1"
       id="path46"
       inkscape:connector-curvature="0" /><text
       transform="matrix(1,0,0,-1,322.77658,23.42225)"
       style="font-variant:normal;font-weight:normal;font-size:10px;font-family:'DejaVu Sans';-inkscape-font-specification:DejaVuSans;writing-mode:lr-tb;fill:#000000;fill-opacity:1;fill-rule:nonzero;stroke:none"
       id="text50"><tspan
         x="0 6.3600001 12.72"
         y="0"
         sodipodi:role="line"
         id="tspan48">250</tspan></text>
<path
       d="m 384.01223,38.016 v -3.5"
       style="fill:#000000;fill-opacity:1;fill-rule:nonzero;stroke:#000000;stroke-width:0.80000001;stroke-linecap:butt;stroke-linejoin:round;stroke-miterlimit:10;stroke-dasharray:none;stroke-opacity:1"
       id="path52"
       inkscape:connector-curvature="0" /><text
       transform="matrix(1,0,0,-1,374.47317,23.42225)"
       style="font-variant:normal;font-weight:normal;font-size:10px;font-family:'DejaVu Sans';-inkscape-font-specification:DejaVuSans;writing-mode:lr-tb;fill:#000000;fill-opacity:1;fill-rule:nonzero;stroke:none"
       id="text56"><tspan
         x="0 6.3600001 12.72"
         y="0"
         sodipodi:role="line"
         id="tspan54">300</tspan></text>
<path
       d="M 57.6,71.818167 H 54.1"
       style="fill:#000000;fill-opacity:1;fill-rule:nonzero;stroke:#000000;stroke-width:0.80000001;stroke-linecap:butt;stroke-linejoin:round;stroke-miterlimit:10;stroke-dasharray:none;stroke-opacity:1"
       id="path58"
       inkscape:connector-curvature="0" /><text
       transform="matrix(1,0,0,-1,37.88125,68.021292)"
       style="font-variant:normal;font-weight:normal;font-size:10px;font-family:'DejaVu Sans';-inkscape-font-specification:DejaVuSans;writing-mode:lr-tb;fill:#000000;fill-opacity:1;fill-rule:nonzero;stroke:none"
       id="text62"><tspan
         x="0 6.3600001"
         y="0"
         sodipodi:role="line"
         id="tspan60">60</tspan></text>
<path
       d="M 57.6,110.90238 H 54.1"
       style="fill:#000000;fill-opacity:1;fill-rule:nonzero;stroke:#000000;stroke-width:0.80000001;stroke-linecap:butt;stroke-linejoin:round;stroke-miterlimit:10;stroke-dasharray:none;stroke-opacity:1"
       id="path64"
       inkscape:connector-curvature="0" /><text
       transform="matrix(1,0,0,-1,37.88125,107.10551)"
       style="font-variant:normal;font-weight:normal;font-size:10px;font-family:'DejaVu Sans';-inkscape-font-specification:DejaVuSans;writing-mode:lr-tb;fill:#000000;fill-opacity:1;fill-rule:nonzero;stroke:none"
       id="text68"><tspan
         x="0 6.3600001"
         y="0"
         sodipodi:role="line"
         id="tspan66">80</tspan></text>
<path
       d="M 57.6,149.9866 H 54.1"
       style="fill:#000000;fill-opacity:1;fill-rule:nonzero;stroke:#000000;stroke-width:0.80000001;stroke-linecap:butt;stroke-linejoin:round;stroke-miterlimit:10;stroke-dasharray:none;stroke-opacity:1"
       id="path70"
       inkscape:connector-curvature="0" /><text
       transform="matrix(1,0,0,-1,31.521875,146.18972)"
       style="font-variant:normal;font-weight:normal;font-size:10px;font-family:'DejaVu Sans';-inkscape-font-specification:DejaVuSans;writing-mode:lr-tb;fill:#000000;fill-opacity:1;fill-rule:nonzero;stroke:none"
       id="text74"><tspan
         x="0 6.3600001 12.72"
         y="0"
         sodipodi:role="line"
         id="tspan72">100</tspan></text>
<path
       d="M 57.6,189.07081 H 54.1"
       style="fill:#000000;fill-opacity:1;fill-rule:nonzero;stroke:#000000;stroke-width:0.80000001;stroke-linecap:butt;stroke-linejoin:round;stroke-miterlimit:10;stroke-dasharray:none;stroke-opacity:1"
       id="path76"
       inkscape:connector-curvature="0" /><text
       transform="matrix(1,0,0,-1,31.521875,185.27394)"
       style="font-variant:normal;font-weight:normal;font-size:10px;font-family:'DejaVu Sans';-inkscape-font-specification:DejaVuSans;writing-mode:lr-tb;fill:#000000;fill-opacity:1;fill-rule:nonzero;stroke:none"
       id="text80"><tspan
         x="0 6.3600001 12.72"
         y="0"
         sodipodi:role="line"
         id="tspan78">120</tspan></text>
<path
       d="M 57.6,228.15503 H 54.1"
       style="fill:#000000;fill-opacity:1;fill-rule:nonzero;stroke:#000000;stroke-width:0.80000001;stroke-linecap:butt;stroke-linejoin:round;stroke-miterlimit:10;stroke-dasharray:none;stroke-opacity:1"
       id="path82"
       inkscape:connector-curvature="0" /><text
       transform="matrix(1,0,0,-1,31.521875,224.35816)"
       style="font-variant:normal;font-weight:normal;font-size:10px;font-family:'DejaVu Sans';-inkscape-font-specification:DejaVuSans;writing-mode:lr-tb;fill:#000000;fill-opacity:1;fill-rule:nonzero;stroke:none"
       id="text86"><tspan
         x="0 6.3600001 12.72"
         y="0"
         sodipodi:role="line"
         id="tspan84">140</tspan></text>
<path
       d="M 57.6,267.23925 H 54.1"
       style="fill:#000000;fill-opacity:1;fill-rule:nonzero;stroke:#000000;stroke-width:0.80000001;stroke-linecap:butt;stroke-linejoin:round;stroke-miterlimit:10;stroke-dasharray:none;stroke-opacity:1"
       id="path88"
       inkscape:connector-curvature="0" /><text
       transform="matrix(1,0,0,-1,31.521875,263.44237)"
       style="font-variant:normal;font-weight:normal;font-size:10px;font-family:'DejaVu Sans';-inkscape-font-specification:DejaVuSans;writing-mode:lr-tb;fill:#000000;fill-opacity:1;fill-rule:nonzero;stroke:none"
       id="text92"><tspan
         x="0 6.3600001 12.72"
         y="0"
         sodipodi:role="line"
         id="tspan90">160</tspan></text>
<g
       id="g94"><g
         id="g96"
         clip-path="url(#clipPath100)"><path
           d="m 73.832727,50.112 2.067864,2.755926 1.033931,1.525818 1.033932,2.279933 2.067863,15.098792 2.067864,12.602266 2.067863,10.390689 2.067863,8.440546 1.033932,3.56459 1.033932,3.16516 1.033931,2.79244 1.033932,2.4452 1.033932,2.12228 1.033931,1.82255 1.033932,1.54489 1.033932,1.28829 1.033931,1.05169 1.033932,0.83411 1.033932,0.63461 1.033931,0.45227 1.033932,0.28619 1.033931,0.13552 18.61077,0.009 3.1018,2.96287 3.10179,2.55452 3.1018,2.16319 3.10179,1.79327 3.1018,1.44821 3.10179,1.13062 3.1018,0.84238 3.10179,0.58473 3.1018,0.35828 3.10179,0.1632 7.23752,0.0164 39.28941,0.0254 4.13572,2.32905 4.13573,2.11449 4.13573,1.90099 4.13572,1.69704 5.16966,1.86107 5.16966,1.61654 3.10179,0.87676 1.03394,0.49821 5.16966,4.19962 6.20358,5.36131 9.30539,8.41461 12.40718,11.21517 6.20359,5.3367 6.20359,5.02603 5.16966,3.89846 5.16966,3.60296 5.16965,3.28977 5.16966,2.97075 5.16966,2.65771 5.16966,2.36201 5.16966,2.09448 5.16966,1.86499 6.20359,2.00176 7.23752,2.13183 1.03393,0.89327 22.7465,27.19788 7.23752,8.21229 6.20359,6.72492 6.20359,6.39326 6.20359,6.04381 6.20359,5.69869 6.20359,5.3805 7.23752,5.9419 1.03393,0.82522 v 0"
           style="fill:none;stroke:#95a5a6;stroke-width:1;stroke-linecap:butt;stroke-linejoin:round;stroke-miterlimit:10;stroke-dasharray:3.7, 1.6;stroke-dashoffset:0;stroke-opacity:1"
           id="path102"
           inkscape:connector-curvature="0" /></g></g><g
       id="g104"><g
         id="g106"
         clip-path="url(#clipPath110)"><path
           d="m 99.681019,126.04668 1.033931,1.08587 1.03393,0.38908 2.06787,-0.0197 4.13572,0.63977 4.13573,0.97122 3.10179,0.96048 4.13573,1.56646 1.03393,0.72673 1.03393,0.5346 2.06787,0.43719 2.06786,1.31623 3.1018,2.30396 1.03393,0.46745 3.10179,0.89335 4.13573,1.02689 3.10179,0.54841 4.13573,0.42364 4.13573,0.24734 1.03393,0.003 2.06786,-0.13856 4.13573,0.21725 4.13573,0.40836 4.13572,0.61591 6.20359,1.2458 2.06787,0.55458 3.10179,0.87271 3.1018,0.63385 5.16965,0.68304 5.16966,0.47928 6.20359,0.33145 7.23752,0.0861 12.40719,0.28823 5.16965,0.13408 5.16966,0.10127 9.30539,0.13179 9.30538,0.14573 4.13573,0.10037 10.33931,0.39296 5.16966,0.0804 3.1018,0.4079 3.10179,0.36006 3.1018,0.18606 2.06786,0.33725 3.1018,0.72119 2.06786,0.70012 1.03393,0.53576 1.03393,0.69288 2.06787,1.829 1.03393,0.94275 2.06786,1.33444 2.06786,1.14168 2.06787,1.41114 1.03393,0.95828 3.10179,3.37955 3.1018,3.06859 2.06786,2.34809 6.20359,7.63458 3.1018,4.59574 3.10179,5.48538 1.03394,1.94024 2.06786,2.69284 1.03393,1.69228 1.03393,1.91963 3.1018,7.82426 4.13572,8.38782 3.1018,6.80666 5.16966,11.01293 2.06786,4.54559 15.50898,39.06659 6.20359,16.2018 12.40718,31.19163 4.13572,9.88715 4.13573,9.33529 3.76738,8.0913 v 0"
           style="fill:none;stroke:#e74c3c;stroke-width:1.5;stroke-linecap:square;stroke-linejoin:round;stroke-miterlimit:10;stroke-dasharray:none;stroke-opacity:1"
           id="path112"
           inkscape:connector-curvature="0" /></g></g><g
       id="g114"><g
         id="g116"
         clip-path="url(#clipPath120)"><path
           d="m 73.832727,50.112 1.033932,1.325341 1.033932,1.430585 1.033931,1.525818 1.033932,2.279933 1.033932,7.880231 1.033931,7.218561 1.033932,6.594821 1.033932,6.007445 1.033931,5.454918 1.033932,4.935771 1.033932,4.448578 1.033931,3.991968 1.033932,3.56459 1.033932,3.16516 1.033931,2.79244 1.033932,2.4452 1.033932,2.12228 1.033931,1.82255 1.033932,1.54489 1.033932,1.28829 1.033931,1.05169 1.033932,0.83411 1.033932,0.63461 1.033931,0.45227"
           style="fill:none;stroke:#1abc9c;stroke-width:2;stroke-linecap:square;stroke-linejoin:round;stroke-miterlimit:10;stroke-dasharray:none;stroke-opacity:1"
           id="path122"
           inkscape:connector-curvature="0" /></g></g><g
       id="g124"><path
         d="M 57.6,38.016 V 304.128"
         style="fill:none;stroke:#000000;stroke-width:0.80000001;stroke-linecap:square;stroke-linejoin:miter;stroke-miterlimit:10;stroke-dasharray:none;stroke-opacity:1"
         id="path126"
         inkscape:connector-curvature="0" /><path
         d="M 414.72,38.016 V 304.128"
         style="fill:none;stroke:#000000;stroke-width:0.80000001;stroke-linecap:square;stroke-linejoin:miter;stroke-miterlimit:10;stroke-dasharray:none;stroke-opacity:1"
         id="path128"
         inkscape:connector-curvature="0" /><path
         d="M 57.6,38.016 H 414.72"
         style="fill:none;stroke:#000000;stroke-width:0.80000001;stroke-linecap:square;stroke-linejoin:miter;stroke-miterlimit:10;stroke-dasharray:none;stroke-opacity:1"
         id="path130"
         inkscape:connector-curvature="0" /><path
         d="M 57.6,304.128 H 414.72"
         style="fill:none;stroke:#000000;stroke-width:0.80000001;stroke-linecap:square;stroke-linejoin:miter;stroke-miterlimit:10;stroke-dasharray:none;stroke-opacity:1"
         id="path132"
         inkscape:connector-curvature="0" /><path
         d="m 64.6,252.11237 h 142.625 c 1.33333,0 2,0.66667 2,2 V 297.128 c 0,1.33333 -0.66667,2 -2,2 H 64.6 c -1.333333,0 -2,-0.66667 -2,-2 v -43.01563 c 0,-1.33333 0.666667,-2 2,-2 z"
         style="fill:#ffffff;fill-opacity:0.8;fill-rule:nonzero;stroke:#cccccc;stroke-width:1;stroke-linecap:butt;stroke-linejoin:miter;stroke-miterlimit:10;stroke-dasharray:none;stroke-opacity:0.8"
         id="path134"
         inkscape:connector-curvature="0" /><path
         d="m 66.6,291.03425 h 20"
         style="fill:none;stroke:#95a5a6;stroke-width:1;stroke-linecap:butt;stroke-linejoin:round;stroke-miterlimit:10;stroke-dasharray:3.7, 1.6;stroke-dashoffset:0;stroke-opacity:1"
         id="path136"
         inkscape:connector-curvature="0" /><text
         transform="matrix(1,0,0,-1,94.6,287.53425)"
         style="font-variant:normal;font-weight:normal;font-size:10px;font-family:'DejaVu Sans';-inkscape-font-specification:DejaVuSans;writing-mode:lr-tb;fill:#000000;fill-opacity:1;fill-rule:nonzero;stroke:none"
         id="text140"><tspan
           x="0 3.9200001 10.04 16.16 18.940001 22.120001 30.299999 36.450001 42.580002 46.689999 49.869999 56.220001 62.369999 68.720001 72.830002 78.959999 85.309998 91.440002 95.360001 98.139999 104.26"
           y="0"
           sodipodi:role="line"
           id="tspan138">tool wear degradation</tspan></text>
<path
         d="m 66.6,276.36237 h 20"
         style="fill:none;stroke:#e74c3c;stroke-width:1.5;stroke-linecap:square;stroke-linejoin:round;stroke-miterlimit:10;stroke-dasharray:none;stroke-opacity:1"
         id="path142"
         inkscape:connector-curvature="0" /><text
         transform="matrix(1,0,0,-1,94.6,272.86237)"
         style="font-variant:normal;font-weight:normal;font-size:10px;font-family:'DejaVu Sans';-inkscape-font-specification:DejaVuSans;writing-mode:lr-tb;fill:#000000;fill-opacity:1;fill-rule:nonzero;stroke:none"
         id="text146"><tspan
           x="0 3.9200001 10.04 16.16 18.940001 22.120001 30.299999 36.450001 42.580002 46.689999 49.869999 53.389999 59.509998 63.619999 69.769997 75.269997 81.400002 86.610001"
           y="0"
           sodipodi:role="line"
           id="tspan144">tool wear forecast</tspan></text>
<path
         d="m 66.6,261.6905 h 20"
         style="fill:none;stroke:#1abc9c;stroke-width:2;stroke-linecap:square;stroke-linejoin:round;stroke-miterlimit:10;stroke-dasharray:none;stroke-opacity:1"
         id="path148"
         inkscape:connector-curvature="0" /><text
         transform="matrix(1,0,0,-1,94.6,258.1905)"
         style="font-variant:normal;font-weight:normal;font-size:10px;font-family:'DejaVu Sans';-inkscape-font-specification:DejaVuSans;writing-mode:lr-tb;fill:#000000;fill-opacity:1;fill-rule:nonzero;stroke:none"
         id="text152"><tspan
           x="0 4.1100001 10.26 16.389999 19.17 23.09 25.870001 35.610001 41.759998 44.939999 48.860001 54.98 61.099998 63.880001 67.059998 75.239998 81.389999 87.519997"
           y="0"
           sodipodi:role="line"
           id="tspan150">realtime tool wear</tspan></text>
</g></g></svg>